<mxfile host="app.diagrams.net" modified="2024-01-20T06:25:15.245Z" agent="Mozilla/5.0 (Windows NT 10.0; Win64; x64) AppleWebKit/537.36 (KHTML, like Gecko) Chrome/120.0.0.0 Safari/537.36" etag="KOOh_-zNON4k0jkgdAFK" version="22.1.21" type="github">
  <diagram id="2f404044-711c-603c-8f00-f6bb4c023d3c" name="Page-1">
    <mxGraphModel dx="1434" dy="866" grid="1" gridSize="10" guides="1" tooltips="1" connect="1" arrows="1" fold="1" page="1" pageScale="1" pageWidth="3300" pageHeight="2339" background="none" math="0" shadow="0">
      <root>
        <mxCell id="0" />
        <mxCell id="1" parent="0" />
        <mxCell id="uE881-GqZYFhaDyidCsF-286" style="edgeStyle=orthogonalEdgeStyle;rounded=0;orthogonalLoop=1;jettySize=auto;html=1;" edge="1" parent="1" source="uE881-GqZYFhaDyidCsF-287" target="uE881-GqZYFhaDyidCsF-293">
          <mxGeometry relative="1" as="geometry" />
        </mxCell>
        <mxCell id="uE881-GqZYFhaDyidCsF-287" value="" style="whiteSpace=wrap;html=1;verticalAlign=top;rounded=1;shadow=0;strokeWidth=2;arcSize=3;dashed=1;" vertex="1" parent="1">
          <mxGeometry x="2080" y="690" width="710" height="210" as="geometry" />
        </mxCell>
        <mxCell id="uE881-GqZYFhaDyidCsF-288" value="" style="sketch=0;aspect=fixed;pointerEvents=1;shadow=0;dashed=0;html=1;strokeColor=none;labelPosition=center;verticalLabelPosition=bottom;verticalAlign=top;align=center;fillColor=#00188D;shape=mxgraph.mscae.enterprise.android_phone" vertex="1" parent="1">
          <mxGeometry x="2397.27" y="768" width="48" height="80" as="geometry" />
        </mxCell>
        <mxCell id="uE881-GqZYFhaDyidCsF-289" value="" style="shape=image;verticalLabelPosition=bottom;labelBackgroundColor=#ffffff;verticalAlign=top;aspect=fixed;imageAspect=0;image=data:image/svg+xml,PHN2ZyB4bWxuczpjYz0iaHR0cDovL2NyZWF0aXZlY29tbW9ucy5vcmcvbnMjIiB4bWxuczpkYz0iaHR0cDovL3B1cmwub3JnL2RjL2VsZW1lbnRzLzEuMS8iIHhtbG5zOmlua3NjYXBlPSJodHRwOi8vd3d3Lmlua3NjYXBlLm9yZy9uYW1lc3BhY2VzL2lua3NjYXBlIiB4bWxuczpyZGY9Imh0dHA6Ly93d3cudzMub3JnLzE5OTkvMDIvMjItcmRmLXN5bnRheC1ucyMiIHhtbG5zOnNvZGlwb2RpPSJodHRwOi8vc29kaXBvZGkuc291cmNlZm9yZ2UubmV0L0RURC9zb2RpcG9kaS0wLmR0ZCIgeG1sbnM6c3ZnPSJodHRwOi8vd3d3LnczLm9yZy8yMDAwL3N2ZyIgeG1sbnM9Imh0dHA6Ly93d3cudzMub3JnLzIwMDAvc3ZnIiB4bWxuczp4bGluaz0iaHR0cDovL3d3dy53My5vcmcvMTk5OS94bGluayIgdmVyc2lvbj0iMS4xIiBpZD0ic3ZnMjU0MTgiIGlua3NjYXBlOnZlcnNpb249IjAuOTIuMyAoMjQwNTU0NiwgMjAxOC0wMy0xMSkiIHNvZGlwb2RpOmRvY25hbWU9Im1vYmlsZV9waG9uZS5zdmciIHg9IjBweCIgeT0iMHB4IiB2aWV3Qm94PSIwIDAgMTIuNzUgMjUuNDciIHN0eWxlPSJlbmFibGUtYmFja2dyb3VuZDpuZXcgMCAwIDEyLjc1IDI1LjQ3OyIgeG1sOnNwYWNlPSJwcmVzZXJ2ZSI+JiN4YTs8c29kaXBvZGk6bmFtZWR2aWV3IGJvcmRlcmNvbG9yPSIjNjY2NjY2IiBib3JkZXJvcGFjaXR5PSIxIiBmaXQtbWFyZ2luLWJvdHRvbT0iMCIgZml0LW1hcmdpbi1sZWZ0PSIwIiBmaXQtbWFyZ2luLXJpZ2h0PSIwIiBmaXQtbWFyZ2luLXRvcD0iMCIgZ3JpZHRvbGVyYW5jZT0iMTAiIGd1aWRldG9sZXJhbmNlPSIxMCIgaWQ9Im5hbWVkdmlldzI1NDIwIiBpbmtzY2FwZTpjdXJyZW50LWxheWVyPSJzdmcyNTQxOCIgaW5rc2NhcGU6Y3g9IjguNTAwMDE0NyIgaW5rc2NhcGU6Y3k9IjE2Ljk4MTExOCIgaW5rc2NhcGU6cGFnZW9wYWNpdHk9IjAiIGlua3NjYXBlOnBhZ2VzaGFkb3c9IjIiIGlua3NjYXBlOndpbmRvdy1oZWlnaHQ9IjEwMTciIGlua3NjYXBlOndpbmRvdy1tYXhpbWl6ZWQ9IjEiIGlua3NjYXBlOndpbmRvdy13aWR0aD0iMTkyMCIgaW5rc2NhcGU6d2luZG93LXg9Ii04IiBpbmtzY2FwZTp3aW5kb3cteT0iLTgiIGlua3NjYXBlOnpvb209IjI0LjExMTE3NCIgb2JqZWN0dG9sZXJhbmNlPSIxMCIgcGFnZWNvbG9yPSIjZmZmZmZmIiBzaG93Z3JpZD0iZmFsc2UiPiYjeGE7CTwvc29kaXBvZGk6bmFtZWR2aWV3PiYjeGE7PGcgaWQ9ImcyNTQxNiIgdHJhbnNmb3JtPSJ0cmFuc2xhdGUoLTAuNzUsLTAuNzQ2OTE4NDUpIj4mI3hhOwk8dGl0bGUgaWQ9InRpdGxlMjUzODYiPlBhZ2UtMTwvdGl0bGU+JiN4YTsJPGcgaWQ9Imdyb3VwMzMxNy0xIiB0cmFuc2Zvcm09InRyYW5zbGF0ZSgwLjc1LC0wLjc2MDAwNykiPiYjeGE7CQk8dGl0bGUgaWQ9InRpdGxlMjUzODgiPk1vYmlsZSBQaG9uZTwvdGl0bGU+JiN4YTsJCTxnIGlkPSJzaGFwZTMzMTgtMiI+JiN4YTsJCQk8dGl0bGUgaWQ9InRpdGxlMjUzOTAiPnBhdGgyMzgyPC90aXRsZT4mI3hhOwkJCTxwYXRoIGlkPSJwYXRoMjUzOTIiIGlua3NjYXBlOmNvbm5lY3Rvci1jdXJ2YXR1cmU9IjAiIHN0eWxlPSJmaWxsOiMyRTJFMkU7IiBkPSJNMTEuNTEsMjYuNTljLTEuNjQsMC4zLTMuMywwLjQzLTQuOTYsMC4zOCAgICAgYy0xLjc4LDAuMDUtMy41Ni0wLjA4LTUuMzEtMC4zOEMwLjQ5LDI2LjQsMCwyNS45NiwwLDI1LjI1VjMuMWMwLTAuNzEsMC40Ny0xLjE0LDEuMjctMS4yNmMxLjc0LTAuMjIsMy40OS0wLjMzLDUuMjUtMC4zMyAgICAgYzEuNjYtMC4wMiwzLjMyLDAuMDksNC45NiwwLjMzYzAuODYsMC4xMywxLjI3LDAuNTcsMS4yNywxLjI5djIyLjEyQzEyLjc1LDI1Ljk2LDEyLjM4LDI2LjM5LDExLjUxLDI2LjU5eiIvPiYjeGE7CQk8L2c+JiN4YTsJCTxnIGlkPSJzaGFwZTMzMTktNCIgdHJhbnNmb3JtPSJ0cmFuc2xhdGUoMC43NSwtMi45NTUpIj4mI3hhOwkJCTx0aXRsZSBpZD0idGl0bGUyNTM5NSI+cmVjdDIzODQ8L3RpdGxlPiYjeGE7CQkJPHJlY3QgaWQ9InJlY3QyNTM5NyIgeT0iNy40NyIgc3R5bGU9ImZpbGw6IzJCOEZERTsiIHdpZHRoPSIxMS4yNSIgaGVpZ2h0PSIxOS41Ii8+JiN4YTsJCTwvZz4mI3hhOwkJPGcgaWQ9InNoYXBlMzMyMC02IiB0cmFuc2Zvcm09InRyYW5zbGF0ZSg1LjkyNSwtMjMuODM1KSI+JiN4YTsJCQk8dGl0bGUgaWQ9InRpdGxlMjU0MDAiPmNpcmNsZTIzODY8L3RpdGxlPiYjeGE7CQkJPGNpcmNsZSBpZD0iZWxsaXBzZTI1NDAyIiBzdHlsZT0iZmlsbDojNzU3NTc1OyIgY3g9IjAuMjUiIGN5PSIyNi43MiIgcj0iMC4yNSIvPiYjeGE7CQk8L2c+JiN4YTsJCTxnIGlkPSJzaGFwZTMzMjEtOCIgdHJhbnNmb3JtPSJ0cmFuc2xhdGUoMi4wNzc1LC0yMy42OTI1KSI+JiN4YTsJCQk8dGl0bGUgaWQ9InRpdGxlMjU0MDUiPmNpcmNsZTIzODg8L3RpdGxlPiYjeGE7CQkJPGNpcmNsZSBpZD0iZWxsaXBzZTI1NDA3IiBzdHlsZT0iZmlsbDojNzU3NTc1OyIgY3g9IjAuMiIgY3k9IjI2Ljc3IiByPSIwLjE5Ii8+JiN4YTsJCTwvZz4mI3hhOwkJPGcgaWQ9InNoYXBlMzMyMi0xMCIgdHJhbnNmb3JtPSJ0cmFuc2xhdGUoMS4zNzI1LC0xMi43MikiPiYjeGE7CQkJPHRpdGxlIGlkPSJ0aXRsZTI1NDEwIj5wb2x5Z29uMjM5MDwvdGl0bGU+JiN4YTsJCQk8cGF0aCBpZD0icGF0aDI1NDEyIiBpbmtzY2FwZTpjb25uZWN0b3ItY3VydmF0dXJlPSIwIiBzdHlsZT0iZmlsbDojRDFEM0Q0O2ZpbGwtb3BhY2l0eTowLjU7IiBkPSJNMCwxNy4yM2wxMC42Myw5Ljc0di05Ljc0SDB6Ii8+JiN4YTsJCTwvZz4mI3hhOwk8L2c+JiN4YTs8L2c+JiN4YTs8L3N2Zz4=;" vertex="1" parent="1">
          <mxGeometry x="2551.87" y="763" width="46.8" height="90" as="geometry" />
        </mxCell>
        <mxCell id="uE881-GqZYFhaDyidCsF-290" value="" style="shape=image;verticalLabelPosition=bottom;labelBackgroundColor=#ffffff;verticalAlign=top;aspect=fixed;imageAspect=0;image=data:image/svg+xml,PHN2ZyB4bWxuczpjYz0iaHR0cDovL2NyZWF0aXZlY29tbW9ucy5vcmcvbnMjIiB4bWxuczpkYz0iaHR0cDovL3B1cmwub3JnL2RjL2VsZW1lbnRzLzEuMS8iIHhtbG5zOmlua3NjYXBlPSJodHRwOi8vd3d3Lmlua3NjYXBlLm9yZy9uYW1lc3BhY2VzL2lua3NjYXBlIiB4bWxuczpyZGY9Imh0dHA6Ly93d3cudzMub3JnLzE5OTkvMDIvMjItcmRmLXN5bnRheC1ucyMiIHhtbG5zOnNvZGlwb2RpPSJodHRwOi8vc29kaXBvZGkuc291cmNlZm9yZ2UubmV0L0RURC9zb2RpcG9kaS0wLmR0ZCIgeG1sbnM6c3ZnPSJodHRwOi8vd3d3LnczLm9yZy8yMDAwL3N2ZyIgeG1sbnM9Imh0dHA6Ly93d3cudzMub3JnLzIwMDAvc3ZnIiB4bWxuczp4bGluaz0iaHR0cDovL3d3dy53My5vcmcvMTk5OS94bGluayIgdmVyc2lvbj0iMS4xIiBpZD0ic3ZnMjU3MzAiIGlua3NjYXBlOnZlcnNpb249IjAuOTIuMyAoMjQwNTU0NiwgMjAxOC0wMy0xMSkiIHNvZGlwb2RpOmRvY25hbWU9IndvcmtzcGFjZV8yLnN2ZyIgeD0iMHB4IiB5PSIwcHgiIHZpZXdCb3g9IjAgMCA4NS43NCA2OC43MSIgc3R5bGU9ImVuYWJsZS1iYWNrZ3JvdW5kOm5ldyAwIDAgODUuNzQgNjguNzE7IiB4bWw6c3BhY2U9InByZXNlcnZlIj4mI3hhOzxzb2RpcG9kaTpuYW1lZHZpZXcgYm9yZGVyY29sb3I9IiM2NjY2NjYiIGJvcmRlcm9wYWNpdHk9IjEiIGZpdC1tYXJnaW4tYm90dG9tPSIwIiBmaXQtbWFyZ2luLWxlZnQ9IjAiIGZpdC1tYXJnaW4tcmlnaHQ9IjAiIGZpdC1tYXJnaW4tdG9wPSIwIiBncmlkdG9sZXJhbmNlPSIxMCIgZ3VpZGV0b2xlcmFuY2U9IjEwIiBpZD0ibmFtZWR2aWV3MjU3MzIiIGlua3NjYXBlOmN1cnJlbnQtbGF5ZXI9InN2ZzI1NzMwIiBpbmtzY2FwZTpjeD0iNTcuMTYxNTQzIiBpbmtzY2FwZTpjeT0iNDUuODA4MzQyIiBpbmtzY2FwZTpwYWdlb3BhY2l0eT0iMCIgaW5rc2NhcGU6cGFnZXNoYWRvdz0iMiIgaW5rc2NhcGU6d2luZG93LWhlaWdodD0iMTAxNyIgaW5rc2NhcGU6d2luZG93LW1heGltaXplZD0iMSIgaW5rc2NhcGU6d2luZG93LXdpZHRoPSIxOTIwIiBpbmtzY2FwZTp3aW5kb3cteD0iLTgiIGlua3NjYXBlOndpbmRvdy15PSItOCIgaW5rc2NhcGU6em9vbT0iOS40NjQwMzA1IiBvYmplY3R0b2xlcmFuY2U9IjEwIiBwYWdlY29sb3I9IiNmZmZmZmYiIHNob3dncmlkPSJmYWxzZSI+JiN4YTsJPC9zb2RpcG9kaTpuYW1lZHZpZXc+JiN4YTs8ZyBpZD0iZzI1NzI4IiB0cmFuc2Zvcm09InRyYW5zbGF0ZSgtMS42NDU5Mzk2ZS00LDAuMDAxNCkiPiYjeGE7CTx0aXRsZSBpZD0idGl0bGUyNTUzMyI+UGFnZS0xPC90aXRsZT4mI3hhOwk8ZyBpZD0iZ3JvdXA5MTg4LTEiPiYjeGE7CQk8dGl0bGUgaWQ9InRpdGxlMjU1MzUiPldvcmtzcGFjZSAjMjwvdGl0bGU+JiN4YTsJCTxnIGlkPSJzaGFwZTkxODktMiIgdHJhbnNmb3JtPSJ0cmFuc2xhdGUoMzAuMTE4MywtMTAuNTkxMykiPiYjeGE7CQkJPHRpdGxlIGlkPSJ0aXRsZTI1NTM3Ij5TaGVldC45MTg5PC90aXRsZT4mI3hhOwkJCTxwYXRoIGlkPSJwYXRoMjU1MzkiIGlua3NjYXBlOmNvbm5lY3Rvci1jdXJ2YXR1cmU9IjAiIHN0eWxlPSJmaWxsOiM1MDUxNTA7IiBkPSJNMzMuNjEsNjQuMzZIMi42OEwwLDY4LjcxaDM2LjlMMzMuNjEsNjQuMzZ6Ii8+JiN4YTsJCTwvZz4mI3hhOwkJPGcgaWQ9InNoYXBlOTE5MC00IiB0cmFuc2Zvcm09InRyYW5zbGF0ZSgzMC4xMTgzLC05LjUwNDk5KSI+JiN4YTsJCQk8dGl0bGUgaWQ9InRpdGxlMjU1NDIiPlNoZWV0LjkxOTA8L3RpdGxlPiYjeGE7CQkJPHBhdGggaWQ9InBhdGgyNTU0NCIgaW5rc2NhcGU6Y29ubmVjdG9yLWN1cnZhdHVyZT0iMCIgc3R5bGU9ImZpbGw6IzJDMkMyQzsiIGQ9Ik0wLDY3LjYydjEuMDloMzYuOXYtMS4wOUgweiIvPiYjeGE7CQk8L2c+JiN4YTsJCTxnIGlkPSJzaGFwZTkxOTEtNiIgdHJhbnNmb3JtPSJ0cmFuc2xhdGUoMTEuNjY3NSwtMjQuNDQxNCkiPiYjeGE7CQkJPHRpdGxlIGlkPSJ0aXRsZTI1NTQ3Ij5TaGVldC45MTkxPC90aXRsZT4mI3hhOwkJCTxwYXRoIGlkPSJwYXRoMjU1NDkiIGlua3NjYXBlOmNvbm5lY3Rvci1jdXJ2YXR1cmU9IjAiIHN0eWxlPSJmaWxsOiMyQzJDMkM7IiBkPSJNNzQuMDcsNjYuM2MwLDEuMjctMSwyLjQxLTIuNCwyLjQxICAgICBjLTY5LjI0LDAtNjkuMjQsMC02OS4yNCwwQzEuMDIsNjguNzEsMCw2Ny41NywwLDY2LjNjMC0zOS40MywwLTM5LjQzLDAtMzkuNDNjMC0xLjQxLDEuMDItMi40MywyLjQzLTIuNDMgICAgIGM2OS4yNCwwLDY5LjI0LDAsNjkuMjQsMGMxLjQsMCwyLjQsMS4wMiwyLjQsMi40M1Y2Ni4zeiIvPiYjeGE7CQk8L2c+JiN4YTsJCTxnIGlkPSJzaGFwZTkxOTItOCIgdHJhbnNmb3JtPSJ0cmFuc2xhdGUoNDMuNjg1MiwtMTIuNzYzOCkiPiYjeGE7CQkJPHRpdGxlIGlkPSJ0aXRsZTI1NTUyIj5TaGVldC45MTkyPC90aXRsZT4mI3hhOwkJCTxwYXRoIGlkPSJwYXRoMjU1NTQiIGlua3NjYXBlOmNvbm5lY3Rvci1jdXJ2YXR1cmU9IjAiIHN0eWxlPSJmaWxsOiMyQzJDMkM7IiBkPSJNNi43Miw1Ny4wM2MwLjI1LDAuMjcsMC4zOSwwLjc4LDAuMzksMS4xNyAgICAgYzAsMS4yNy0xLjAyLDIuMzEtMi4yOSwyLjMxYy0xLjI2LDAtMi4yOC0xLjA0LTIuMjgtMi4zMWMwLTAuMzksMC4xMi0wLjksMC4yNi0xLjE3Yy0yLjgsMC0yLjgsMC0yLjgsMGMwLDExLjY4LDAsMTEuNjgsMCwxMS42OCAgICAgYzkuNSwwLDkuNSwwLDkuNSwwYzAtMTEuNjgsMC0xMS42OCwwLTExLjY4SDYuNzJ6Ii8+JiN4YTsJCTwvZz4mI3hhOwkJPGcgaWQ9InNoYXBlOTE5My0xMCIgdHJhbnNmb3JtPSJ0cmFuc2xhdGUoMTMuNTY2OCwtMjguMjQzNCkiPiYjeGE7CQkJPHRpdGxlIGlkPSJ0aXRsZTI1NTU3Ij5TaGVldC45MTkzPC90aXRsZT4mI3hhOwkJCTxwYXRoIGlkPSJwYXRoMjU1NTkiIGlua3NjYXBlOmNvbm5lY3Rvci1jdXJ2YXR1cmU9IjAiIHN0eWxlPSJmaWxsOiMwMEJDRjI7IiBkPSJNNzAsNjcuODJjMCwwLjUxLTAuNSwwLjg5LTEuMDEsMC44OSAgICAgYy02Ny45NiwwLTY3Ljk2LDAtNjcuOTYsMEMwLjUxLDY4LjcxLDAsNjguMzMsMCw2Ny44MmMwLTM2LjY2LDAtMzYuNjYsMC0zNi42NmMwLTAuNTEsMC41MS0xLjAyLDEuMDMtMS4wMiAgICAgYzY3Ljk2LDAsNjcuOTYsMCw2Ny45NiwwYzAuNTEsMCwxLjAxLDAuNTEsMS4wMSwxLjAyVjY3LjgyeiIvPiYjeGE7CQk8L2c+JiN4YTsJCTxnIGlkPSJzaGFwZTkxOTQtMTIiIHRyYW5zZm9ybT0idHJhbnNsYXRlKDE5LjI2NDksLTUwLjI0MDcpIj4mI3hhOwkJCTx0aXRsZSBpZD0idGl0bGUyNTU2MiI+U2hlZXQuOTE5NDwvdGl0bGU+JiN4YTsJCQk8cGF0aCBpZD0icGF0aDI1NTY0IiBpbmtzY2FwZTpjb25uZWN0b3ItY3VydmF0dXJlPSIwIiBzdHlsZT0iZmlsbDojMDA0NENDOyIgZD0iTTAsNjAuODN2Ny44OGgxNi4wMXYtNy44OEwwLDYwLjgzeiIvPiYjeGE7CQk8L2c+JiN4YTsJCTxnIGlkPSJzaGFwZTkxOTUtMTQiIHRyYW5zZm9ybT0idHJhbnNsYXRlKDM2LjA4NzcsLTUwLjI0MDcpIj4mI3hhOwkJCTx0aXRsZSBpZD0idGl0bGUyNTU2NyI+U2hlZXQuOTE5NTwvdGl0bGU+JiN4YTsJCQk8cGF0aCBpZD0icGF0aDI1NTY5IiBpbmtzY2FwZTpjb25uZWN0b3ItY3VydmF0dXJlPSIwIiBzdHlsZT0iZmlsbDojNUQ0OTlEOyIgZD0iTTAsNjAuODN2Ny44OGgxNi4wMXYtNy44OEwwLDYwLjgzeiIvPiYjeGE7CQk8L2c+JiN4YTsJCTxnIGlkPSJzaGFwZTkxOTYtMTYiIHRyYW5zZm9ybT0idHJhbnNsYXRlKDUyLjYzOTMsLTUwLjI0MDcpIj4mI3hhOwkJCTx0aXRsZSBpZD0idGl0bGUyNTU3MiI+U2hlZXQuOTE5NjwvdGl0bGU+JiN4YTsJCQk8cGF0aCBpZD0icGF0aDI1NTc0IiBpbmtzY2FwZTpjb25uZWN0b3ItY3VydmF0dXJlPSIwIiBzdHlsZT0iZmlsbDojRjlGN0Y4OyIgZD0iTTAsNjAuODN2Ny44OGg3Ljg3di03Ljg4TDAsNjAuODN6Ii8+JiN4YTsJCTwvZz4mI3hhOwkJPGcgaWQ9InNoYXBlOTE5Ny0xOCIgdHJhbnNmb3JtPSJ0cmFuc2xhdGUoNjEuMDUwNywtNTAuMjQwNykiPiYjeGE7CQkJPHRpdGxlIGlkPSJ0aXRsZTI1NTc3Ij5TaGVldC45MTk3PC90aXRsZT4mI3hhOwkJCTxwYXRoIGlkPSJwYXRoMjU1NzkiIGlua3NjYXBlOmNvbm5lY3Rvci1jdXJ2YXR1cmU9IjAiIHN0eWxlPSJmaWxsOiMwMTlFNEE7IiBkPSJNMCw2MC44M3Y3Ljg4aDcuODd2LTcuODhMMCw2MC44M3oiLz4mI3hhOwkJPC9nPiYjeGE7CQk8ZyBpZD0ic2hhcGU5MTk4LTIwIiB0cmFuc2Zvcm09InRyYW5zbGF0ZSg1Mi42MzkzLC00MS44MjIpIj4mI3hhOwkJCTx0aXRsZSBpZD0idGl0bGUyNTU4MiI+U2hlZXQuOTE5ODwvdGl0bGU+JiN4YTsJCQk8cGF0aCBpZD0icGF0aDI1NTg0IiBpbmtzY2FwZTpjb25uZWN0b3ItY3VydmF0dXJlPSIwIiBzdHlsZT0iZmlsbDojMDA0NENDOyIgZD0iTTAsNjAuODN2Ny44OGg3Ljg3di03Ljg4TDAsNjAuODN6Ii8+JiN4YTsJCTwvZz4mI3hhOwkJPGcgaWQ9InNoYXBlOTE5OS0yMiIgdHJhbnNmb3JtPSJ0cmFuc2xhdGUoMTkuMjY0OSwtNDEuODIyKSI+JiN4YTsJCQk8dGl0bGUgaWQ9InRpdGxlMjU1ODciPlNoZWV0LjkxOTk8L3RpdGxlPiYjeGE7CQkJPHBhdGggaWQ9InBhdGgyNTU4OSIgaW5rc2NhcGU6Y29ubmVjdG9yLWN1cnZhdHVyZT0iMCIgc3R5bGU9ImZpbGw6IzAxOUU0QTsiIGQ9Ik0wLDYwLjgzdjcuODhoNy44N3YtNy44OEwwLDYwLjgzeiIvPiYjeGE7CQk8L2c+JiN4YTsJCTxnIGlkPSJzaGFwZTkyMDAtMjQiIHRyYW5zZm9ybT0idHJhbnNsYXRlKDE5LjI2NDksLTMzLjQwMzMpIj4mI3hhOwkJCTx0aXRsZSBpZD0idGl0bGUyNTU5MiI+U2hlZXQuOTIwMDwvdGl0bGU+JiN4YTsJCQk8cGF0aCBpZD0icGF0aDI1NTk0IiBpbmtzY2FwZTpjb25uZWN0b3ItY3VydmF0dXJlPSIwIiBzdHlsZT0iZmlsbDojMDA0NENDOyIgZD0iTTAsNjAuODN2Ny44OGg3Ljg3di03Ljg4TDAsNjAuODN6Ii8+JiN4YTsJCTwvZz4mI3hhOwkJPGcgaWQ9InNoYXBlOTIwMS0yNiIgdHJhbnNmb3JtPSJ0cmFuc2xhdGUoMjcuNjc2MywtMzMuNDAzMykiPiYjeGE7CQkJPHRpdGxlIGlkPSJ0aXRsZTI1NTk3Ij5TaGVldC45MjAxPC90aXRsZT4mI3hhOwkJCTxwYXRoIGlkPSJwYXRoMjU1OTkiIGlua3NjYXBlOmNvbm5lY3Rvci1jdXJ2YXR1cmU9IjAiIHN0eWxlPSJmaWxsOiNGRjhDMDA7IiBkPSJNMCw2MC44M3Y3Ljg4aDcuODd2LTcuODhMMCw2MC44M3oiLz4mI3hhOwkJPC9nPiYjeGE7CQk8ZyBpZD0ic2hhcGU5MjAyLTI4IiB0cmFuc2Zvcm09InRyYW5zbGF0ZSgzNi4wODc3LC00MS44MjIpIj4mI3hhOwkJCTx0aXRsZSBpZD0idGl0bGUyNTYwMiI+U2hlZXQuOTIwMjwvdGl0bGU+JiN4YTsJCQk8cGF0aCBpZD0icGF0aDI1NjA0IiBpbmtzY2FwZTpjb25uZWN0b3ItY3VydmF0dXJlPSIwIiBzdHlsZT0iZmlsbDojNTg1OTVCOyIgZD0iTTAsNjAuODN2Ny44OGgxNi4wMXYtNy44OEwwLDYwLjgzeiIvPiYjeGE7CQk8L2c+JiN4YTsJCTxnIGlkPSJzaGFwZTkyMDMtMzAiIHRyYW5zZm9ybT0idHJhbnNsYXRlKDM2LjA4NzcsLTMzLjQwMzMpIj4mI3hhOwkJCTx0aXRsZSBpZD0idGl0bGUyNTYwNyI+U2hlZXQuOTIwMzwvdGl0bGU+JiN4YTsJCQk8cGF0aCBpZD0icGF0aDI1NjA5IiBpbmtzY2FwZTpjb25uZWN0b3ItY3VydmF0dXJlPSIwIiBzdHlsZT0iZmlsbDojRjlGN0Y4OyIgZD0iTTAsNjAuODN2Ny44OGgxNi4wMXYtNy44OEwwLDYwLjgzeiIvPiYjeGE7CQk8L2c+JiN4YTsJCTxnIGlkPSJzaGFwZTkyMDQtMzIiIHRyYW5zZm9ybT0idHJhbnNsYXRlKDUyLjYzOTMsLTMzLjQwMzMpIj4mI3hhOwkJCTx0aXRsZSBpZD0idGl0bGUyNTYxMiI+U2hlZXQuOTIwNDwvdGl0bGU+JiN4YTsJCQk8cGF0aCBpZD0icGF0aDI1NjE0IiBpbmtzY2FwZTpjb25uZWN0b3ItY3VydmF0dXJlPSIwIiBzdHlsZT0iZmlsbDojRjlGN0Y4OyIgZD0iTTAsNjYuMjZ2Mi40NWgxNi4yOHYtMi40NUgweiIvPiYjeGE7CQk8L2c+JiN4YTsJCTxnIGlkPSJzaGFwZTkyMDUtMzQiIHRyYW5zZm9ybT0idHJhbnNsYXRlKDUyLjYzOTMsLTM2LjExOSkiPiYjeGE7CQkJPHRpdGxlIGlkPSJ0aXRsZTI1NjE3Ij5TaGVldC45MjA1PC90aXRsZT4mI3hhOwkJCTxwYXRoIGlkPSJwYXRoMjU2MTkiIGlua3NjYXBlOmNvbm5lY3Rvci1jdXJ2YXR1cmU9IjAiIHN0eWxlPSJmaWxsOiM1ODU5NUI7IiBkPSJNMCw2My41NXY1LjE2aDE2LjI4di01LjE2SDB6Ii8+JiN4YTsJCTwvZz4mI3hhOwkJPGcgaWQ9InNoYXBlOTIwNi0zNiIgdHJhbnNmb3JtPSJ0cmFuc2xhdGUoNjEuMDUwNywtNDEuODIyKSI+JiN4YTsJCQk8dGl0bGUgaWQ9InRpdGxlMjU2MjIiPlNoZWV0LjkyMDY8L3RpdGxlPiYjeGE7CQkJPHBhdGggaWQ9InBhdGgyNTYyNCIgaW5rc2NhcGU6Y29ubmVjdG9yLWN1cnZhdHVyZT0iMCIgc3R5bGU9ImZpbGw6I0Y5RjdGODsiIGQ9Ik0wLDYwLjgzdjcuODhoNy44N3YtNy44OEwwLDYwLjgzeiIvPiYjeGE7CQk8L2c+JiN4YTsJCTxnIGlkPSJzaGFwZTkyMDctMzgiIHRyYW5zZm9ybT0idHJhbnNsYXRlKDcyLjcxODIsLTQxLjgyMikiPiYjeGE7CQkJPHRpdGxlIGlkPSJ0aXRsZTI1NjI3Ij5TaGVldC45MjA3PC90aXRsZT4mI3hhOwkJCTxwYXRoIGlkPSJwYXRoMjU2MjkiIGlua3NjYXBlOmNvbm5lY3Rvci1jdXJ2YXR1cmU9IjAiIHN0eWxlPSJmaWxsOiMwMTlFNEE7IiBkPSJNMCw2MC44M3Y3Ljg4aDcuNnYtNy44OEwwLDYwLjgzeiIvPiYjeGE7CQk8L2c+JiN4YTsJCTxnIGlkPSJzaGFwZTkyMDgtNDAiIHRyYW5zZm9ybT0idHJhbnNsYXRlKDcyLjcxODIsLTMzLjQwMzMpIj4mI3hhOwkJCTx0aXRsZSBpZD0idGl0bGUyNTYzMiI+U2hlZXQuOTIwODwvdGl0bGU+JiN4YTsJCQk8cGF0aCBpZD0icGF0aDI1NjM0IiBpbmtzY2FwZTpjb25uZWN0b3ItY3VydmF0dXJlPSIwIiBzdHlsZT0iZmlsbDojRkY4QzAwOyIgZD0iTTAsNjAuODN2Ny44OGg3LjZ2LTcuODhMMCw2MC44M3oiLz4mI3hhOwkJPC9nPiYjeGE7CQk8ZyBpZD0ic2hhcGU5MjA5LTQyIiB0cmFuc2Zvcm09InRyYW5zbGF0ZSg4MC44NTgyLC00MS44MjIpIj4mI3hhOwkJCTx0aXRsZSBpZD0idGl0bGUyNTYzNyI+U2hlZXQuOTIwOTwvdGl0bGU+JiN4YTsJCQk8cGF0aCBpZD0icGF0aDI1NjM5IiBpbmtzY2FwZTpjb25uZWN0b3ItY3VydmF0dXJlPSIwIiBzdHlsZT0iZmlsbDojRkY4QzAwOyIgZD0iTTAsNjAuODN2Ny44OGgyLjcxdi03Ljg4TDAsNjAuODN6Ii8+JiN4YTsJCTwvZz4mI3hhOwkJPGcgaWQ9InNoYXBlOTIxMC00NCIgdHJhbnNmb3JtPSJ0cmFuc2xhdGUoODAuODU4MiwtMzMuNDAzMykiPiYjeGE7CQkJPHRpdGxlIGlkPSJ0aXRsZTI1NjQyIj5TaGVldC45MjEwPC90aXRsZT4mI3hhOwkJCTxwYXRoIGlkPSJwYXRoMjU2NDQiIGlua3NjYXBlOmNvbm5lY3Rvci1jdXJ2YXR1cmU9IjAiIHN0eWxlPSJmaWxsOiM5RTFGNjM7IiBkPSJNMCw2MC44M3Y3Ljg4aDIuNzF2LTcuODhMMCw2MC44M3oiLz4mI3hhOwkJPC9nPiYjeGE7CQk8ZyBpZD0ic2hhcGU5MjExLTQ2IiB0cmFuc2Zvcm09InRyYW5zbGF0ZSg3Mi43MTgyLC01MC4yNDA3KSI+JiN4YTsJCQk8dGl0bGUgaWQ9InRpdGxlMjU2NDciPlNoZWV0LjkyMTE8L3RpdGxlPiYjeGE7CQkJPHBhdGggaWQ9InBhdGgyNTY0OSIgaW5rc2NhcGU6Y29ubmVjdG9yLWN1cnZhdHVyZT0iMCIgc3R5bGU9ImZpbGw6IzAwNDRDQzsiIGQ9Ik0wLDYwLjgzdjcuODhoMTAuODV2LTcuODhMMCw2MC44M3oiLz4mI3hhOwkJPC9nPiYjeGE7CQk8ZyBpZD0ic2hhcGU5MjEyLTQ4IiB0cmFuc2Zvcm09InRyYW5zbGF0ZSgyNy42NzYzLC00MS44MjIpIj4mI3hhOwkJCTx0aXRsZSBpZD0idGl0bGUyNTY1MiI+U2hlZXQuOTIxMjwvdGl0bGU+JiN4YTsJCQk8cGF0aCBpZD0icGF0aDI1NjU0IiBpbmtzY2FwZTpjb25uZWN0b3ItY3VydmF0dXJlPSIwIiBzdHlsZT0iZmlsbDojRjlGN0Y4OyIgZD0iTTMuOTcsNjAuODNIMHYzLjkxdjMuOTdoMy45N2gzLjl2LTMuOTd2LTMuOTEgICAgIEwzLjk3LDYwLjgzeiIvPiYjeGE7CQk8L2c+JiN4YTsJCTxnIGlkPSJzaGFwZTkyMTMtNTAiIHRyYW5zZm9ybT0idHJhbnNsYXRlKDc5Ljc3MjksLTYyLjE4OTgpIj4mI3hhOwkJCTx0aXRsZSBpZD0idGl0bGUyNTY1NyI+U2hlZXQuOTIxMzwvdGl0bGU+JiN4YTsJCQk8cGF0aCBpZD0icGF0aDI1NjU5IiBpbmtzY2FwZTpjb25uZWN0b3ItY3VydmF0dXJlPSIwIiBzdHlsZT0iZmlsbDojRkY4QzAwOyIgZD0iTTAsNjYuODF2MS45aDIuMTd2LTEuOUgweiIvPiYjeGE7CQk8L2c+JiN4YTsJCTxnIGlkPSJzaGFwZTkyMTQtNTIiIHRyYW5zZm9ybT0idHJhbnNsYXRlKDE5LjUzNjIsLTYyLjE4OTgpIj4mI3hhOwkJCTx0aXRsZSBpZD0idGl0bGUyNTY2MiI+U2hlZXQuOTIxNDwvdGl0bGU+JiN4YTsJCQk8cGF0aCBpZD0icGF0aDI1NjY0IiBpbmtzY2FwZTpjb25uZWN0b3ItY3VydmF0dXJlPSIwIiBzdHlsZT0iZmlsbDojRkZGRkZGOyIgZD0iTTAsNjguNTljMC0wLjEyLDAtMC4xMiwwLTAuMTIgICAgIGMwLjEsMC4xMiwwLjIsMC4xMiwwLjMxLDAuMTJjMC4xLDAsMC4yLDAsMC4zLTAuMTJjMC4xLDAsMC4xLTAuMTIsMC4xLTAuMjRjMC0wLjEyLDAtMC4xMi0wLjEtMC4yNGMwLDAtMC4xLTAuMTEtMC4yLTAuMjMgICAgIGMtMC4yMSwwLTAuMzEtMC4xMi0wLjMxLTAuMjRDMCw2Ny40LDAsNjcuNCwwLDY3LjI4czAtMC4yNCwwLjEtMC4zNWMwLjEtMC4xMiwwLjIxLTAuMTIsMC40MS0wLjEyYzAuMSwwLDAuMSwwLDAuMiwwICAgICBjMCwwLjIzLDAsMC4yMywwLDAuMjNjLTAuMS0wLjExLTAuMi0wLjExLTAuMy0wLjExcy0wLjEsMC0wLjIxLDAuMTFjLTAuMSwwLTAuMSwwLjEyLTAuMSwwLjI0YzAsMC4xMiwwLDAuMTIsMC4xLDAuMjQgICAgIGMwLDAsMC4xMSwwLjEyLDAuMjEsMC4yNGMwLjIsMC4xMiwwLjMsMC4xMiwwLjMsMC4yM2MwLjEsMC4xMiwwLjEsMC4xMiwwLjEsMC4yNGMwLDAuMTIsMCwwLjI0LTAuMSwwLjM2cy0wLjIsMC4xMi0wLjQsMC4xMiAgICAgYzAsMC0wLjExLDAtMC4yMSwwQzAuMSw2OC43MSwwLDY4LjcxLDAsNjguNTl6Ii8+JiN4YTsJCTwvZz4mI3hhOwkJPGcgaWQ9InNoYXBlOTIxNS01NCIgdHJhbnNmb3JtPSJ0cmFuc2xhdGUoMjAuNjIxNiwtNjIuMTg5OCkiPiYjeGE7CQkJPHRpdGxlIGlkPSJ0aXRsZTI1NjY3Ij5TaGVldC45MjE1PC90aXRsZT4mI3hhOwkJCTxwYXRoIGlkPSJwYXRoMjU2NjkiIGlua3NjYXBlOmNvbm5lY3Rvci1jdXJ2YXR1cmU9IjAiIHN0eWxlPSJmaWxsOiNGRkZGRkY7IiBkPSJNMC44MSw2OC43MWMtMC4xMywwLTAuMTMsMC0wLjI3LDAgICAgIGMtMC4yNywwLTAuMjctMC4xMi0wLjI3LTAuMzhjMC0wLjg4LDAtMC44OCwwLTAuODhjLTAuMjcsMC0wLjI3LDAtMC4yNywwYzAtMC4xMywwLTAuMTMsMC0wLjEzYzAuMjcsMCwwLjI3LDAsMC4yNywwICAgICBjMC0wLjM4LDAtMC4zOCwwLTAuMzhsMCwwYzAsMCwwLDAsMC4xNC0wLjEzYzAsMC41MSwwLDAuNTEsMCwwLjUxYzAuNCwwLDAuNCwwLDAuNCwwYzAsMC4xMywwLDAuMTMsMCwwLjEzYy0wLjQsMC0wLjQsMC0wLjQsMCAgICAgYzAsMC44OCwwLDAuODgsMCwwLjg4YzAsMC4xNCwwLDAuMTQsMCwwLjI2aDAuMTNjMC4xNCwwLDAuMTQsMCwwLjI3LDBMMC44MSw2OC43MXoiLz4mI3hhOwkJPC9nPiYjeGE7CQk8ZyBpZD0ic2hhcGU5MjE2LTU2IiB0cmFuc2Zvcm09InRyYW5zbGF0ZSgyMS43MDY5LC02Mi4xODk4KSI+JiN4YTsJCQk8dGl0bGUgaWQ9InRpdGxlMjU2NzIiPlNoZWV0LjkyMTY8L3RpdGxlPiYjeGE7CQkJPHBhdGggaWQ9InBhdGgyNTY3NCIgaW5rc2NhcGU6Y29ubmVjdG9yLWN1cnZhdHVyZT0iMCIgc3R5bGU9ImZpbGw6I0ZGRkZGRjsiIGQ9Ik0wLjk1LDY4LjcxYzAtMC4yMiwwLTAuMjIsMC0wLjIybDAsMCAgICAgYzAsMC0wLjE0LDAuMTItMC4yNywwLjEyYzAsMC4xLTAuMTQsMC4xLTAuMjcsMC4xYy0wLjE0LDAtMC4yNywwLTAuMjctMC4xQzAsNjguNjEsMCw2OC40OSwwLDY4LjM3YzAtMC4yMiwwLjE0LTAuMzQsMC41NC0wLjQ0ICAgICBjMC40MSwwLDAuNDEsMCwwLjQxLDBjMC0wLjI0LTAuMTQtMC40Ni0wLjQxLTAuNDZjLTAuMTMsMC0wLjI3LDAuMTItMC40LDAuMjJjMC0wLjEsMC0wLjEsMC0wLjFjMC0wLjEyLDAuMTMtMC4xMiwwLjEzLTAuMTIgICAgIGMwLjE0LDAsMC4yNy0wLjEyLDAuMjctMC4xMmMwLjI3LDAsMC4yNywwLjEyLDAuNDEsMC4yNGMwLjE0LDAsMC4xNCwwLjEsMC4xNCwwLjM0YzAsMC43OCwwLDAuNzgsMCwwLjc4TDAuOTUsNjguNzF6ICAgICAgTTAuNTQsNjguMDNjLTAuMTMsMC0wLjI3LDAuMTItMC4yNywwLjEyYy0wLjEzLDAuMTItMC4xMywwLjEyLTAuMTMsMC4yMmMwLDAuMTIsMCwwLjEyLDAsMC4yNGMwLjEzLDAsMC4yNywwLDAuMjcsMCAgICAgYzAuMTMsMCwwLjI3LDAsMC40LTAuMTJjMC4xNC0wLjEyLDAuMTQtMC4yMiwwLjE0LTAuMzRjMC0wLjEyLDAtMC4xMiwwLTAuMTJIMC41NHoiLz4mI3hhOwkJPC9nPiYjeGE7CQk8ZyBpZD0ic2hhcGU5MjE3LTU4IiB0cmFuc2Zvcm09InRyYW5zbGF0ZSgyMy4zMzQ5LC02Mi4xODk4KSI+JiN4YTsJCQk8dGl0bGUgaWQ9InRpdGxlMjU2NzciPlNoZWV0LjkyMTc8L3RpdGxlPiYjeGE7CQkJPHBhdGggaWQ9InBhdGgyNTY3OSIgaW5rc2NhcGU6Y29ubmVjdG9yLWN1cnZhdHVyZT0iMCIgc3R5bGU9ImZpbGw6I0ZGRkZGRjsiIGQ9Ik0wLjU0LDY3LjU5bC0wLjEtMC4xMiAgICAgYy0wLjEsMC0wLjIyLDAuMTItMC4yMiwwLjIyYy0wLjEsMC4xMi0wLjEsMC4yNC0wLjEsMC40NmMwLDAuNTYsMCwwLjU2LDAsMC41NmMtMC4xMiwwLTAuMTIsMC0wLjEyLDBjMC0xLjI0LDAtMS4yNCwwLTEuMjQgICAgIGMwLjEyLDAsMC4xMiwwLDAuMTIsMGMwLDAuMjIsMCwwLjIyLDAsMC4yMmwwLDBjMC0wLjEsMC4xLTAuMSwwLjEtMC4yMmMwLjEyLDAsMC4xMi0wLjEyLDAuMjItMC4xMmwwLjEsMC4xMlY2Ny41OXoiLz4mI3hhOwkJPC9nPiYjeGE7CQk8ZyBpZD0ic2hhcGU5MjE4LTYwIiB0cmFuc2Zvcm09InRyYW5zbGF0ZSgyNC4xNDg5LC02Mi4xODk4KSI+JiN4YTsJCQk8dGl0bGUgaWQ9InRpdGxlMjU2ODIiPlNoZWV0LjkyMTg8L3RpdGxlPiYjeGE7CQkJPHBhdGggaWQ9InBhdGgyNTY4NCIgaW5rc2NhcGU6Y29ubmVjdG9yLWN1cnZhdHVyZT0iMCIgc3R5bGU9ImZpbGw6I0ZGRkZGRjsiIGQ9Ik0wLjgxLDY4LjcxYy0wLjEzLDAtMC4xMywwLTAuMjcsMCAgICAgYy0wLjEzLDAtMC4yNy0wLjEyLTAuMjctMC4zOGMwLTAuODgsMC0wLjg4LDAtMC44OGMtMC4yNywwLTAuMjcsMC0wLjI3LDBjMC0wLjEzLDAtMC4xMywwLTAuMTNjMC4yNywwLDAuMjcsMCwwLjI3LDAgICAgIGMwLTAuMzgsMC0wLjM4LDAtMC4zOGwwLDBjMC4xNCwwLDAuMTQsMCwwLjE0LTAuMTNjMCwwLjUxLDAsMC41MSwwLDAuNTFjMC40LDAsMC40LDAsMC40LDBjMCwwLjEzLDAsMC4xMywwLDAuMTMgICAgIGMtMC40LDAtMC40LDAtMC40LDBjMCwwLjg4LDAsMC44OCwwLDAuODhjMCwwLjE0LDAsMC4xNCwwLDAuMjZjMC4xMywwLDAuMTMsMCwwLjI3LDBjMCwwLDAsMCwwLjEzLDBMMC44MSw2OC43MXoiLz4mI3hhOwkJPC9nPiYjeGE7CQk8ZyBpZD0ic2hhcGU5MjE5LTYyIiB0cmFuc2Zvcm09InRyYW5zbGF0ZSgwLC0yLjk4NzI4KSI+JiN4YTsJCQk8dGl0bGUgaWQ9InRpdGxlMjU2ODciPlNoZWV0LjkyMTk8L3RpdGxlPiYjeGE7CQkJPHBhdGggaWQ9InBhdGgyNTY4OSIgaW5rc2NhcGU6Y29ubmVjdG9yLWN1cnZhdHVyZT0iMCIgc3R5bGU9ImZpbGw6IzJDMkMyQzsiIGQ9Ik0xMi42Nyw2NC4zNmMtMC4xNCwwLTAuMTQtMC4xMy0wLjI2LTAuMTMgICAgIGMtMS42Ni0wLjk5LTMuNzEtMS41LTUuNzYtMS41Yy0yLjA0LDAtNC4wOSwwLjUxLTUuNzUsMS41Yy0wLjEyLDAtMC4xMiwwLjEzLTAuMjYsMC4xM0MwLjI3LDY0LjYsMCw2NS4xMSwwLDY1LjYgICAgIGMwLDEuODcsMCwxLjg3LDAsMS44N2MwLDAuNzUsMC42NCwxLjI0LDEuMjksMS4yNGMxMC43MywwLDEwLjczLDAsMTAuNzMsMGMwLjc3LDAsMS4yOC0wLjQ5LDEuMjgtMS4yNGMwLTEuODcsMC0xLjg3LDAtMS44NyAgICAgQzEzLjMsNjUuMTEsMTMuMDQsNjQuNiwxMi42Nyw2NC4zNnoiLz4mI3hhOwkJPC9nPiYjeGE7CQk8ZyBpZD0ic2hhcGU5MjIwLTY0IiB0cmFuc2Zvcm09InRyYW5zbGF0ZSg1Ljk2OTQsLTUuOTc0NTcpIj4mI3hhOwkJCTx0aXRsZSBpZD0idGl0bGUyNTY5MiI+U2hlZXQuOTIyMDwvdGl0bGU+JiN4YTsJCQk8cGF0aCBpZD0icGF0aDI1Njk0IiBpbmtzY2FwZTpjb25uZWN0b3ItY3VydmF0dXJlPSIwIiBzdHlsZT0iZmlsbDojOTY5Njk2OyIgZD0iTTEuMzYsNjguMDZjMCwwLjM5LTAuMjcsMC42NS0wLjY4LDAuNjVsMCwwICAgICBDMC4yNyw2OC43MSwwLDY4LjQ1LDAsNjguMDZjMC0yLjYzLDAtMi42MywwLTIuNjNjMC0wLjI1LDAuMjctMC41MiwwLjY4LTAuNTJsMCwwYzAuNDEsMCwwLjY4LDAuMjcsMC42OCwwLjUyVjY4LjA2eiIvPiYjeGE7CQk8L2c+JiN4YTsJCTxnIGlkPSJzaGFwZTkyMjEtNjYiIHRyYW5zZm9ybT0idHJhbnNsYXRlKDE1LjczNzUsLTEuMzU3ODYpIj4mI3hhOwkJCTx0aXRsZSBpZD0idGl0bGUyNTY5NyI+U2hlZXQuOTIyMTwvdGl0bGU+JiN4YTsJCQk8cGF0aCBpZD0icGF0aDI1Njk5IiBpbmtzY2FwZTpjb25uZWN0b3ItY3VydmF0dXJlPSIwIiBzdHlsZT0iZmlsbDojNTA1MTUwOyIgZD0iTTY1LjY2LDY4LjcxSDBsNS4xOS01Ljk4aDU0Ljg5TDY1LjY2LDY4LjcxeiIvPiYjeGE7CQk8L2c+JiN4YTsJCTxnIGlkPSJzaGFwZTkyMjItNjgiIHRyYW5zZm9ybT0idHJhbnNsYXRlKDE1LjczNzUpIj4mI3hhOwkJCTx0aXRsZSBpZD0idGl0bGUyNTcwMiI+U2hlZXQuOTIyMjwvdGl0bGU+JiN4YTsJCQk8cGF0aCBpZD0icGF0aDI1NzA0IiBpbmtzY2FwZTpjb25uZWN0b3ItY3VydmF0dXJlPSIwIiBzdHlsZT0iZmlsbDojMkMyQzJDOyIgZD0iTTAsNjcuMzV2MS4zNmg2NS42NnYtMS4zNkgweiIvPiYjeGE7CQk8L2c+JiN4YTsJCTxnIGlkPSJzaGFwZTkyMjMtNzAiIHRyYW5zZm9ybT0idHJhbnNsYXRlKDE5LjUzNjIsLTIuNzE1NzEpIj4mI3hhOwkJCTx0aXRsZSBpZD0idGl0bGUyNTcwNyI+U2hlZXQuOTIyMzwvdGl0bGU+JiN4YTsJCQk8cGF0aCBpZD0icGF0aDI1NzA5IiBpbmtzY2FwZTpjb25uZWN0b3ItY3VydmF0dXJlPSIwIiBzdHlsZT0iZmlsbDojMkMyQzJDOyIgZD0iTTQyLjM1LDY1LjQ1SDMuMDlMMCw2OC43MWg0NC4yM0w0Mi4zNSw2NS40NXoiLz4mI3hhOwkJPC9nPiYjeGE7CQk8ZyBpZD0ic2hhcGU5MjI0LTcyIiB0cmFuc2Zvcm09InRyYW5zbGF0ZSg2My40OTI3LC0yLjcxNTcxKSI+JiN4YTsJCQk8dGl0bGUgaWQ9InRpdGxlMjU3MTIiPlNoZWV0LjkyMjQ8L3RpdGxlPiYjeGE7CQkJPHBhdGggaWQ9InBhdGgyNTcxNCIgaW5rc2NhcGU6Y29ubmVjdG9yLWN1cnZhdHVyZT0iMCIgc3R5bGU9ImZpbGw6IzJDMkMyQzsiIGQ9Ik0wLDY1LjQ1aDEwLjU4bDIuOTksMy4yNkgyLjI5TDAsNjUuNDV6Ii8+JiN4YTsJCTwvZz4mI3hhOwkJPGcgaWQ9InNoYXBlOTIyNS03NCIgdHJhbnNmb3JtPSJ0cmFuc2xhdGUoMjAuMDc4OSwtMy41MzA0MikiPiYjeGE7CQkJPHRpdGxlIGlkPSJ0aXRsZTI1NzE3Ij5TaGVldC45MjI1PC90aXRsZT4mI3hhOwkJCTxwYXRoIGlkPSJwYXRoMjU3MTkiIGlua3NjYXBlOmNvbm5lY3Rvci1jdXJ2YXR1cmU9IjAiIHN0eWxlPSJmaWxsOiM1MDUxNTA7IiBkPSJNMCw2OC4xNnYwLjU1aDU2Ljk4di0wLjU1SDB6Ii8+JiN4YTsJCTwvZz4mI3hhOwkJPGcgaWQ9InNoYXBlOTIyNi03NiIgdHJhbnNmb3JtPSJ0cmFuc2xhdGUoMjAuMDc4OSwtNC44ODgyOCkiPiYjeGE7CQkJPHRpdGxlIGlkPSJ0aXRsZTI1NzIyIj5TaGVldC45MjI2PC90aXRsZT4mI3hhOwkJCTxwYXRoIGlkPSJwYXRoMjU3MjQiIGlua3NjYXBlOmNvbm5lY3Rvci1jdXJ2YXR1cmU9IjAiIHN0eWxlPSJmaWxsOiM1MDUxNTA7IiBkPSJNMCw2OC40NHYwLjI3aDU2Ljk4di0wLjI3SDB6Ii8+JiN4YTsJCTwvZz4mI3hhOwk8L2c+JiN4YTs8L2c+JiN4YTs8L3N2Zz4=;" vertex="1" parent="1">
          <mxGeometry x="2204.27" y="774" width="86" height="69" as="geometry" />
        </mxCell>
        <mxCell id="uE881-GqZYFhaDyidCsF-291" style="edgeStyle=orthogonalEdgeStyle;rounded=0;orthogonalLoop=1;jettySize=auto;html=1;exitX=0.5;exitY=1;exitDx=0;exitDy=0;" edge="1" parent="1" source="uE881-GqZYFhaDyidCsF-292" target="uE881-GqZYFhaDyidCsF-298">
          <mxGeometry relative="1" as="geometry" />
        </mxCell>
        <mxCell id="uE881-GqZYFhaDyidCsF-292" value="" style="shape=image;verticalLabelPosition=bottom;labelBackgroundColor=#ffffff;verticalAlign=top;aspect=fixed;imageAspect=0;image=data:image/svg+xml,PHN2ZyB4bWxuczpjYz0iaHR0cDovL2NyZWF0aXZlY29tbW9ucy5vcmcvbnMjIiB4bWxuczpkYz0iaHR0cDovL3B1cmwub3JnL2RjL2VsZW1lbnRzLzEuMS8iIHhtbG5zOmlua3NjYXBlPSJodHRwOi8vd3d3Lmlua3NjYXBlLm9yZy9uYW1lc3BhY2VzL2lua3NjYXBlIiB4bWxuczpyZGY9Imh0dHA6Ly93d3cudzMub3JnLzE5OTkvMDIvMjItcmRmLXN5bnRheC1ucyMiIHhtbG5zOnNvZGlwb2RpPSJodHRwOi8vc29kaXBvZGkuc291cmNlZm9yZ2UubmV0L0RURC9zb2RpcG9kaS0wLmR0ZCIgeG1sbnM6c3ZnPSJodHRwOi8vd3d3LnczLm9yZy8yMDAwL3N2ZyIgeG1sbnM9Imh0dHA6Ly93d3cudzMub3JnLzIwMDAvc3ZnIiB4bWxuczp4bGluaz0iaHR0cDovL3d3dy53My5vcmcvMTk5OS94bGluayIgdmVyc2lvbj0iMS4xIiBpZD0ic3ZnMTU3MzAzIiBpbmtzY2FwZTp2ZXJzaW9uPSIwLjkyLjMgKDI0MDU1NDYsIDIwMTgtMDMtMTEpIiBzb2RpcG9kaTpkb2NuYW1lPSJnYXRld2F5XzEuc3ZnIiB4PSIwcHgiIHk9IjBweCIgdmlld0JveD0iMCAwIDUzLjE4IDE0LjYyIiBzdHlsZT0iZW5hYmxlLWJhY2tncm91bmQ6bmV3IDAgMCA1My4xOCAxNC42MjsiIHhtbDpzcGFjZT0icHJlc2VydmUiPiYjeGE7PHNvZGlwb2RpOm5hbWVkdmlldyBib3JkZXJjb2xvcj0iIzY2NjY2NiIgYm9yZGVyb3BhY2l0eT0iMSIgZml0LW1hcmdpbi1ib3R0b209IjAiIGZpdC1tYXJnaW4tbGVmdD0iMCIgZml0LW1hcmdpbi1yaWdodD0iMCIgZml0LW1hcmdpbi10b3A9IjAiIGdyaWR0b2xlcmFuY2U9IjEwIiBndWlkZXRvbGVyYW5jZT0iMTAiIGlkPSJuYW1lZHZpZXcxNTczMDUiIGlua3NjYXBlOmN1cnJlbnQtbGF5ZXI9InN2ZzE1NzMwMyIgaW5rc2NhcGU6Y3g9IjM1LjQ1NjQiIGlua3NjYXBlOmN5PSI5Ljc0NzMzMjMiIGlua3NjYXBlOnBhZ2VvcGFjaXR5PSIwIiBpbmtzY2FwZTpwYWdlc2hhZG93PSIyIiBpbmtzY2FwZTp3aW5kb3ctaGVpZ2h0PSIxMDE3IiBpbmtzY2FwZTp3aW5kb3ctbWF4aW1pemVkPSIxIiBpbmtzY2FwZTp3aW5kb3ctd2lkdGg9IjE5MjAiIGlua3NjYXBlOndpbmRvdy14PSItOCIgaW5rc2NhcGU6d2luZG93LXk9Ii04IiBpbmtzY2FwZTp6b29tPSIyNS4xMjk0NTUiIG9iamVjdHRvbGVyYW5jZT0iMTAiIHBhZ2Vjb2xvcj0iI2ZmZmZmZiIgc2hvd2dyaWQ9ImZhbHNlIj4mI3hhOwk8L3NvZGlwb2RpOm5hbWVkdmlldz4mI3hhOzxnIGlkPSJnMTU3MzAxIiB0cmFuc2Zvcm09InRyYW5zbGF0ZSgwLC0xLjIwNzE3MjZlLTUpIj4mI3hhOwk8dGl0bGUgaWQ9InRpdGxlMTU3MjkxIj5QYWdlLTE8L3RpdGxlPiYjeGE7CTxnIGlkPSJncm91cDk0MzItMSI+JiN4YTsJCTx0aXRsZSBpZD0idGl0bGUxNTcyOTMiPkdhdGV3YXkgIzE8L3RpdGxlPiYjeGE7CQk8ZyBpZD0ic2hhcGU5NDMzLTIiPiYjeGE7CQkJPHRpdGxlIGlkPSJ0aXRsZTE1NzI5NSI+U2hlZXQuOTQzMzwvdGl0bGU+JiN4YTsJCQk8cGF0aCBpZD0icGF0aDE1NzI5NyIgaW5rc2NhcGU6Y29ubmVjdG9yLWN1cnZhdHVyZT0iMCIgc3R5bGU9ImZpbGw6IzNGNTc2NTsiIGQ9Ik0zLjQxLDE0LjYyYzQ2LjM4LDAsNDYuMzgsMCw0Ni4zOCwwICAgICBjMS44NywwLDMuMzktMS40NCwzLjM5LTMuM2MwLTcuOTQsMC03Ljk0LDAtNy45NGMwLTEuODctMS41Mi0zLjM4LTMuMzktMy4zOEMzLjQxLDAsMy40MSwwLDMuNDEsMEMxLjUzLDAsMCwxLjUxLDAsMy4zOCAgICAgYzAsNy45NCwwLDcuOTQsMCw3Ljk0QzAsMTMuMTgsMS41MywxNC42MiwzLjQxLDE0LjYyeiBNNDUuODgsNC42OGMxLjQ3LDAsMi42OSwxLjE4LDIuNjksMi42NGMwLDEuNDktMS4yMiwyLjY1LTIuNjksMi42NSAgICAgYy0xLjQ1LDAtMi42Ny0xLjE2LTIuNjctMi42NUM0My4yMSw1Ljg2LDQ0LjQzLDQuNjgsNDUuODgsNC42OHogTTI2Ljc5LDIuN2MyLjA5LDAsMi4wOSwwLDIuMDksMGMwLDIuMDcsMCwyLjA3LDAsMi4wNyAgICAgYy0yLjA5LDAtMi4wOSwwLTIuMDksMEMyNi43OSwyLjcsMjYuNzksMi43LDI2Ljc5LDIuN0wyNi43OSwyLjd6IE0yNi43OSw2LjM4YzIuMDksMCwyLjA5LDAsMi4wOSwwYzAsMi4wOCwwLDIuMDgsMCwyLjA4ICAgICBjLTIuMDksMC0yLjA5LDAtMi4wOSwwQzI2Ljc5LDYuMzgsMjYuNzksNi4zOCwyNi43OSw2LjM4TDI2Ljc5LDYuMzh6IE0yNi43OSw5LjljMi4wOSwwLDIuMDksMCwyLjA5LDBjMCwyLjA4LDAsMi4wOCwwLDIuMDggICAgIGMtMi4wOSwwLTIuMDksMC0yLjA5LDBDMjYuNzksOS45LDI2Ljc5LDkuOSwyNi43OSw5LjlMMjYuNzksOS45eiBNMjIuODMsMi43YzIuMTcsMCwyLjE3LDAsMi4xNywwYzAsMi4wNywwLDIuMDcsMCwyLjA3ICAgICBjLTIuMTcsMC0yLjE3LDAtMi4xNywwQzIyLjgzLDIuNywyMi44MywyLjcsMjIuODMsMi43TDIyLjgzLDIuN3ogTTIyLjgzLDYuMzhjMi4xNywwLDIuMTcsMCwyLjE3LDBjMCwyLjA4LDAsMi4wOCwwLDIuMDggICAgIGMtMi4xNywwLTIuMTcsMC0yLjE3LDBDMjIuODMsNi4zOCwyMi44Myw2LjM4LDIyLjgzLDYuMzhMMjIuODMsNi4zOHogTTIyLjgzLDkuOWMyLjE3LDAsMi4xNywwLDIuMTcsMGMwLDIuMDgsMCwyLjA4LDAsMi4wOCAgICAgYy0yLjE3LDAtMi4xNywwLTIuMTcsMEMyMi44Myw5LjksMjIuODMsOS45LDIyLjgzLDkuOUwyMi44Myw5Ljl6IE0xOC45NSwyLjdjMi4xNSwwLDIuMTUsMCwyLjE1LDBjMCwyLjA3LDAsMi4wNywwLDIuMDcgICAgIGMtMi4xNSwwLTIuMTUsMC0yLjE1LDBDMTguOTUsMi43LDE4Ljk1LDIuNywxOC45NSwyLjdMMTguOTUsMi43eiBNMTguOTUsNi4zOGMyLjE1LDAsMi4xNSwwLDIuMTUsMGMwLDIuMDgsMCwyLjA4LDAsMi4wOCAgICAgYy0yLjE1LDAtMi4xNSwwLTIuMTUsMEMxOC45NSw2LjM4LDE4Ljk1LDYuMzgsMTguOTUsNi4zOEwxOC45NSw2LjM4eiBNMTguOTUsOS45YzIuMTUsMCwyLjE1LDAsMi4xNSwwYzAsMi4wOCwwLDIuMDgsMCwyLjA4ICAgICBjLTIuMTUsMC0yLjE1LDAtMi4xNSwwQzE4Ljk1LDkuOSwxOC45NSw5LjksMTguOTUsOS45TDE4Ljk1LDkuOXogTTE1LjA3LDIuN2MyLjEsMCwyLjEsMCwyLjEsMGMwLDIuMDcsMCwyLjA3LDAsMi4wNyAgICAgYy0yLjEsMC0yLjEsMC0yLjEsMEMxNS4wNywyLjcsMTUuMDcsMi43LDE1LjA3LDIuN0wxNS4wNywyLjd6IE0xNS4wNyw2LjM4YzIuMSwwLDIuMSwwLDIuMSwwYzAsMi4wOCwwLDIuMDgsMCwyLjA4ICAgICBjLTIuMSwwLTIuMSwwLTIuMSwwQzE1LjA3LDYuMzgsMTUuMDcsNi4zOCwxNS4wNyw2LjM4TDE1LjA3LDYuMzh6IE0xNS4wNyw5LjljMi4xLDAsMi4xLDAsMi4xLDBjMCwyLjA4LDAsMi4wOCwwLDIuMDggICAgIGMtMi4xLDAtMi4xLDAtMi4xLDBDMTUuMDcsOS45LDE1LjA3LDkuOSwxNS4wNyw5LjlMMTUuMDcsOS45eiBNMTEuMTIsMi43YzIuMTIsMCwyLjEyLDAsMi4xMiwwYzAsMi4wNywwLDIuMDcsMCwyLjA3ICAgICBjLTIuMTIsMC0yLjEyLDAtMi4xMiwwQzExLjEyLDIuNywxMS4xMiwyLjcsMTEuMTIsMi43TDExLjEyLDIuN3ogTTExLjEyLDYuMzhjMi4xMiwwLDIuMTIsMCwyLjEyLDBjMCwyLjA4LDAsMi4wOCwwLDIuMDggICAgIGMtMi4xMiwwLTIuMTIsMC0yLjEyLDBDMTEuMTIsNi4zOCwxMS4xMiw2LjM4LDExLjEyLDYuMzhMMTEuMTIsNi4zOHogTTExLjEyLDkuOWMyLjEyLDAsMi4xMiwwLDIuMTIsMGMwLDIuMDgsMCwyLjA4LDAsMi4wOCAgICAgYy0yLjEyLDAtMi4xMiwwLTIuMTIsMEMxMS4xMiw5LjksMTEuMTIsOS45LDExLjEyLDkuOUwxMS4xMiw5Ljl6IE03LjIsMi43YzIuMTMsMCwyLjEzLDAsMi4xMywwYzAsMi4wNywwLDIuMDcsMCwyLjA3ICAgICBjLTIuMTMsMC0yLjEzLDAtMi4xMywwQzcuMiwyLjcsNy4yLDIuNyw3LjIsMi43TDcuMiwyLjd6IE03LjIsNi4zOGMyLjEzLDAsMi4xMywwLDIuMTMsMGMwLDIuMDgsMCwyLjA4LDAsMi4wOCAgICAgYy0yLjEzLDAtMi4xMywwLTIuMTMsMEM3LjIsNi4zOCw3LjIsNi4zOCw3LjIsNi4zOEw3LjIsNi4zOHogTTcuMiw5LjljMi4xMywwLDIuMTMsMCwyLjEzLDBjMCwyLjA4LDAsMi4wOCwwLDIuMDggICAgIGMtMi4xMywwLTIuMTMsMC0yLjEzLDBDNy4yLDkuOSw3LjIsOS45LDcuMiw5LjlMNy4yLDkuOXogTTMuMzEsMi43YzIuMSwwLDIuMSwwLDIuMSwwYzAsMi4wNywwLDIuMDcsMCwyLjA3Yy0yLjEsMC0yLjEsMC0yLjEsMCAgICAgQzMuMzEsMi43LDMuMzEsMi43LDMuMzEsMi43TDMuMzEsMi43eiBNMy4zMSw2LjM4YzIuMSwwLDIuMSwwLDIuMSwwYzAsMi4wOCwwLDIuMDgsMCwyLjA4Yy0yLjEsMC0yLjEsMC0yLjEsMCAgICAgQzMuMzEsNi4zOCwzLjMxLDYuMzgsMy4zMSw2LjM4TDMuMzEsNi4zOHogTTMuMzEsOS45YzIuMSwwLDIuMSwwLDIuMSwwYzAsMi4wOCwwLDIuMDgsMCwyLjA4Yy0yLjEsMC0yLjEsMC0yLjEsMCAgICAgQzMuMzEsOS45LDMuMzEsOS45LDMuMzEsOS45TDMuMzEsOS45eiIvPiYjeGE7CQk8L2c+JiN4YTsJPC9nPiYjeGE7PC9nPiYjeGE7PC9zdmc+;" vertex="1" parent="1">
          <mxGeometry x="2202.5" y="1070" width="459.32" height="130" as="geometry" />
        </mxCell>
        <mxCell id="uE881-GqZYFhaDyidCsF-293" value="网关层" style="text;strokeColor=none;fillColor=none;html=1;fontSize=24;fontStyle=1;verticalAlign=middle;align=center;" vertex="1" parent="1">
          <mxGeometry x="2202.5" y="1020" width="465" height="60" as="geometry" />
        </mxCell>
        <mxCell id="uE881-GqZYFhaDyidCsF-294" value="用户层" style="text;strokeColor=none;fillColor=none;html=1;fontSize=24;fontStyle=1;verticalAlign=middle;align=center;" vertex="1" parent="1">
          <mxGeometry x="2181" y="690" width="465" height="90" as="geometry" />
        </mxCell>
        <mxCell id="uE881-GqZYFhaDyidCsF-295" style="edgeStyle=orthogonalEdgeStyle;rounded=0;orthogonalLoop=1;jettySize=auto;html=1;exitX=0.5;exitY=1;exitDx=0;exitDy=0;exitPerimeter=0;entryX=0.5;entryY=0;entryDx=0;entryDy=0;" edge="1" parent="1" source="uE881-GqZYFhaDyidCsF-297" target="uE881-GqZYFhaDyidCsF-311">
          <mxGeometry relative="1" as="geometry">
            <Array as="points">
              <mxPoint x="2432" y="1640" />
              <mxPoint x="3110" y="1640" />
            </Array>
          </mxGeometry>
        </mxCell>
        <mxCell id="uE881-GqZYFhaDyidCsF-296" style="edgeStyle=orthogonalEdgeStyle;rounded=0;orthogonalLoop=1;jettySize=auto;html=1;exitX=0.5;exitY=1;exitDx=0;exitDy=0;exitPerimeter=0;" edge="1" parent="1" source="uE881-GqZYFhaDyidCsF-297" target="uE881-GqZYFhaDyidCsF-309">
          <mxGeometry relative="1" as="geometry" />
        </mxCell>
        <mxCell id="uE881-GqZYFhaDyidCsF-297" value="" style="outlineConnect=0;dashed=0;verticalLabelPosition=bottom;verticalAlign=top;align=center;html=1;shape=mxgraph.aws3.android;fillColor=#EE472A;gradientColor=none;" vertex="1" parent="1">
          <mxGeometry x="2332.16" y="1380" width="200" height="190" as="geometry" />
        </mxCell>
        <mxCell id="uE881-GqZYFhaDyidCsF-298" value="基础服务层" style="text;strokeColor=none;fillColor=none;html=1;fontSize=24;fontStyle=1;verticalAlign=middle;align=center;" vertex="1" parent="1">
          <mxGeometry x="2199.66" y="1320" width="465" height="60" as="geometry" />
        </mxCell>
        <mxCell id="uE881-GqZYFhaDyidCsF-299" value="" style="whiteSpace=wrap;html=1;verticalAlign=top;rounded=1;shadow=0;strokeWidth=2;arcSize=3;dashed=1;" vertex="1" parent="1">
          <mxGeometry x="1250" y="1795" width="717.84" height="205" as="geometry" />
        </mxCell>
        <mxCell id="uE881-GqZYFhaDyidCsF-300" value="" style="image;sketch=0;aspect=fixed;html=1;points=[];align=center;fontSize=12;image=img/lib/mscae/Cache_Redis_Product.svg;" vertex="1" parent="1">
          <mxGeometry x="1407.84" y="1849.2" width="120.94" height="101.6" as="geometry" />
        </mxCell>
        <mxCell id="uE881-GqZYFhaDyidCsF-301" value="" style="shape=image;verticalLabelPosition=bottom;labelBackgroundColor=#ffffff;verticalAlign=top;aspect=fixed;imageAspect=0;image=data:image/svg+xml,PHN2ZyB4bWxuczpjYz0iaHR0cDovL2NyZWF0aXZlY29tbW9ucy5vcmcvbnMjIiB4bWxuczpkYz0iaHR0cDovL3B1cmwub3JnL2RjL2VsZW1lbnRzLzEuMS8iIHhtbG5zOmlua3NjYXBlPSJodHRwOi8vd3d3Lmlua3NjYXBlLm9yZy9uYW1lc3BhY2VzL2lua3NjYXBlIiB4bWxuczpyZGY9Imh0dHA6Ly93d3cudzMub3JnLzE5OTkvMDIvMjItcmRmLXN5bnRheC1ucyMiIHhtbG5zOnNvZGlwb2RpPSJodHRwOi8vc29kaXBvZGkuc291cmNlZm9yZ2UubmV0L0RURC9zb2RpcG9kaS0wLmR0ZCIgeG1sbnM6c3ZnPSJodHRwOi8vd3d3LnczLm9yZy8yMDAwL3N2ZyIgeG1sbnM9Imh0dHA6Ly93d3cudzMub3JnLzIwMDAvc3ZnIiB4bWxuczp4bGluaz0iaHR0cDovL3d3dy53My5vcmcvMTk5OS94bGluayIgdmVyc2lvbj0iMS4xIiBpZD0ic3ZnMTAyMTA3IiBpbmtzY2FwZTp2ZXJzaW9uPSIwLjkyLjMgKDI0MDU1NDYsIDIwMTgtMDMtMTEpIiBzb2RpcG9kaTpkb2NuYW1lPSJteXNxbF8yLnN2ZyIgeD0iMHB4IiB5PSIwcHgiIHZpZXdCb3g9IjAgMCA1Mi44OCA2MC4wNyIgc3R5bGU9ImVuYWJsZS1iYWNrZ3JvdW5kOm5ldyAwIDAgNTIuODggNjAuMDc7IiB4bWw6c3BhY2U9InByZXNlcnZlIj4mI3hhOzxmaWx0ZXIgaWQ9ImZpbHRlcl8yIj4mI3hhOwk8ZmVHYXVzc2lhbkJsdXIgaWQ9ImZlR2F1c3NpYW5CbHVyMTAyMDc1IiBzdGREZXZpYXRpb249IjIiLz4mI3hhOzwvZmlsdGVyPiYjeGE7PHNvZGlwb2RpOm5hbWVkdmlldyBib3JkZXJjb2xvcj0iIzY2NjY2NiIgYm9yZGVyb3BhY2l0eT0iMSIgZml0LW1hcmdpbi1ib3R0b209IjAiIGZpdC1tYXJnaW4tbGVmdD0iMCIgZml0LW1hcmdpbi1yaWdodD0iMCIgZml0LW1hcmdpbi10b3A9IjAiIGdyaWR0b2xlcmFuY2U9IjEwIiBndWlkZXRvbGVyYW5jZT0iMTAiIGlkPSJuYW1lZHZpZXcxMDIxMDkiIGlua3NjYXBlOmN1cnJlbnQtbGF5ZXI9InN2ZzEwMjEwNyIgaW5rc2NhcGU6Y3g9IjM1LjI1IiBpbmtzY2FwZTpjeT0iNDAuMDQ1MjAxIiBpbmtzY2FwZTpwYWdlb3BhY2l0eT0iMCIgaW5rc2NhcGU6cGFnZXNoYWRvdz0iMiIgaW5rc2NhcGU6d2luZG93LWhlaWdodD0iMTAxNyIgaW5rc2NhcGU6d2luZG93LW1heGltaXplZD0iMSIgaW5rc2NhcGU6d2luZG93LXdpZHRoPSIxOTIwIiBpbmtzY2FwZTp3aW5kb3cteD0iLTgiIGlua3NjYXBlOndpbmRvdy15PSItOCIgaW5rc2NhcGU6em9vbT0iMTAuODI0NDc2IiBvYmplY3R0b2xlcmFuY2U9IjEwIiBwYWdlY29sb3I9IiNmZmZmZmYiIHNob3dncmlkPSJmYWxzZSI+JiN4YTsJPC9zb2RpcG9kaTpuYW1lZHZpZXc+JiN4YTs8ZyBpZD0iZzEwMjEwNSI+JiN4YTsJPHRpdGxlIGlkPSJ0aXRsZTEwMjA3OSI+UGFnZS0xPC90aXRsZT4mI3hhOwk8ZyBpZD0iZ3JvdXAzNjM3LTEiPiYjeGE7CQk8dGl0bGUgaWQ9InRpdGxlMTAyMDgxIj5NeVNRTCAjMjwvdGl0bGU+JiN4YTsJCTxnIGlkPSJzaGFwZTM2MzgtMiI+JiN4YTsJCQk8dGl0bGUgaWQ9InRpdGxlMTAyMDgzIj5EYXRhYmFzZSAjMjwvdGl0bGU+JiN4YTsJCQk8cGF0aCBpZD0icGF0aDEwMjA4NSIgaW5rc2NhcGU6Y29ubmVjdG9yLWN1cnZhdHVyZT0iMCIgc3R5bGU9ImZpbGw6IzNGNTc2NTsiIGQ9Ik0yNi43MSwwYzE0LjY0LDAsMjYuMTcsMy45MywyNi4xNyw4LjMxICAgICBjMCw0My41NCwwLDQzLjU0LDAsNDMuNTRjMCw0LjgzLTExLjUzLDguMjItMjYuMTcsOC4yMkMxMi4xNSw2MC4wNywwLDU2LjY4LDAsNTEuODVDMCw4LjMxLDAsOC4zMSwwLDguMzEgICAgIEMwLDMuOTMsMTIuMTUsMCwyNi43MSwweiBNMjYuNzEsMTQuMjFjMTIuNTksMCwyMi42OC0yLjk1LDIyLjY4LTUuOWMwLTIuODYtMTAuMDktNS4zNi0yMi42OC01LjM2Yy0xMi42LDAtMjIuNiwyLjUtMjIuNiw1LjM2ICAgICBDNC4xMSwxMS4yNiwxNC4xMSwxNC4yMSwyNi43MSwxNC4yMXoiLz4mI3hhOwkJPC9nPiYjeGE7CQk8ZyBpZD0ic2hhcGUzNjM5LTQiIHRyYW5zZm9ybT0idHJhbnNsYXRlKDEwLjU4OTIsLTcuMjMwNDkpIj4mI3hhOwkJCTx0aXRsZSBpZD0idGl0bGUxMDIwODgiPlNoZWV0LjM2Mzk8L3RpdGxlPiYjeGE7CQkJPGcgaWQ9InNoYWRvdzM2MzktNSIgdHJhbnNmb3JtPSJ0cmFuc2xhdGUoMC4zNDU2LDEuOTcyOCkiPiYjeGE7CQkJCTxnIGlkPSJwYXRoMTAyMDkwIiBpbmtzY2FwZTpjb25uZWN0b3ItY3VydmF0dXJlPSIwIiBzdHlsZT0iZmlsdGVyOnVybCgjZmlsdGVyXzIpOyI+JiN4YTsJCQkJCTxwYXRoIHN0eWxlPSJvcGFjaXR5OjAuMjI7ZmlsbDojNUI5QkQ1OyIgZD0iTTMyLjY3LDUyLjMyYy0xLjkxLTAuMDUtMy4zNiwwLjEzLTQuNjEsMC42NWMtMC4zNSwwLjE1LTAuOTIsMC4xNS0wLjk3LDAuNiAgICAgICBjMC4xOSwwLjIsMC4yMiwwLjUxLDAuMzgsMC43NmMwLjI5LDAuNDgsMC43OSwxLjEyLDEuMjQsMS40NmMwLjQ5LDAuMzcsMSwwLjc2LDEuNTIsMS4wOGMwLjkzLDAuNTcsMS45NywwLjksMi44NywxLjQ3ICAgICAgIGMwLjUzLDAuMzMsMS4wNiwwLjc2LDEuNTcsMS4xNGMwLjI2LDAuMTgsMC40MywwLjQ3LDAuNzYsMC41OWMwLTAuMDIsMC0wLjAzLDAtMC4wNWMtMC4xNy0wLjIyLTAuMjItMC41My0wLjM4LTAuNzYgICAgICAgYy0wLjIzLTAuMjQtMC40Ny0wLjQ3LTAuNy0wLjcxYy0wLjY5LTAuOTEtMS41Ni0xLjcxLTIuNDktMi4zOGMtMC43NS0wLjUzLTIuNC0xLjI1LTIuNzEtMi4xMWMtMC4wMi0wLjAyLTAuMDQtMC4wNC0wLjA2LTAuMDYgICAgICAgYzAuNTMtMC4wNiwxLjE0LTAuMjUsMS42My0wLjM4YzAuODEtMC4yMiwxLjU0LTAuMTYsMi4zOC0wLjM4YzAuMzgtMC4xMSwwLjc2LTAuMjEsMS4xNC0wLjMyYzAtMC4wNywwLTAuMTUsMC0wLjIyICAgICAgIGMtMC40Mi0wLjQ0LTAuNzMtMS4wMS0xLjE5LTEuNDFjLTEuMjItMS4wMy0yLjU0LTIuMDYtMy45LTIuOTNjLTAuNzYtMC40Ny0xLjctMC43OC0yLjUtMS4xOWMtMC4yNy0wLjEzLTAuNzQtMC4yLTAuOTItMC40MyAgICAgICBjLTAuNDItMC41NC0wLjY1LTEuMjItMC45Ny0xLjg0Yy0wLjY4LTEuMzEtMS4zNS0yLjc1LTEuOTYtNC4xMmMtMC40MS0wLjk0LTAuNjgtMS44Ny0xLjE5LTIuNzEgICAgICAgYy0yLjQ2LTQuMDUtNS4xMS02LjQ5LTkuMjEtOC44OWMtMC44OC0wLjUxLTEuOTMtMC43Mi0zLjA0LTAuOThjLTAuNTktMC4wNC0xLjE5LTAuMDctMS43OS0wLjExICAgICAgIGMtMC4zNi0wLjE1LTAuNzQtMC42LTEuMDgtMC44MWMtMS4zNi0wLjg2LTQuODUtMi43My01Ljg1LTAuMjdDMCwyOC41NiwxLjU5LDMwLjA3LDIuMTUsMzAuODZjMC40LDAuNTUsMC45MSwxLjE3LDEuMiwxLjc5ICAgICAgIGMwLjE4LDAuNCwwLjIyLDAuODEsMC4zOCwxLjI0YzAuMzksMS4wNiwwLjczLDIuMjIsMS4yNCwzLjJjMC4yNiwwLjUsMC41NCwxLjAyLDAuODcsMS40NmMwLjIsMC4yOCwwLjU0LDAuNCwwLjYsMC44MiAgICAgICBjLTAuMzQsMC40Ni0wLjM2LDEuMTktMC41NSwxLjc5Yy0wLjg0LDIuNjctMC41Miw1Ljk5LDAuNzEsNy45NmMwLjM4LDAuNjEsMS4yNywxLjkxLDIuNDksMS40MWMxLjA3LTAuNDMsMC44My0xLjc5LDEuMTQtMi45OCAgICAgICBjMC4wNy0wLjI3LDAuMDMtMC40NywwLjE2LTAuNjVjMCwwLjAyLDAsMC4wNCwwLDAuMDZjMC4zMywwLjY1LDAuNjUsMS4zLDAuOTgsMS45NWMwLjcyLDEuMTYsMiwyLjM3LDMuMDksMy4xOSAgICAgICBjMC41NiwwLjQzLDEsMS4xNywxLjczLDEuNDFjMC0wLjAxLDAtMC4wMywwLTAuMDVjLTAuMDIsMC0wLjAzLDAtMC4wNSwwYy0wLjE0LTAuMjItMC4zNi0wLjMxLTAuNTQtMC40OSAgICAgICBjLTAuNDMtMC40MS0wLjktMC45My0xLjI1LTEuNDFjLTAuOTktMS4zNC0xLjg2LTIuODEtMi42Ni00LjMzYy0wLjM4LTAuNzMtMC43MS0xLjU0LTEuMDMtMi4yOCAgICAgICBjLTAuMTItMC4yOS0wLjEyLTAuNzItMC4zOC0wLjg3Yy0wLjM1LDAuNTUtMC44NiwwLjk5LTEuMTMsMS42M2MtMC40NCwxLjAzLTAuNDksMi4yOC0wLjY1LDMuNTggICAgICAgYy0wLjEsMC4wMy0wLjA2LDAuMDEtMC4xMSwwLjA1Yy0wLjc2LTAuMTgtMS4wMi0wLjk2LTEuMy0xLjYzYy0wLjcxLTEuNjgtMC44NS00LjQtMC4yMi02LjM0YzAuMTYtMC41LDAuODktMi4wOCwwLjU5LTIuNTUgICAgICAgYy0wLjE0LTAuNDYtMC42LTAuNzMtMC44Ni0xLjA4Yy0wLjMyLTAuNDQtMC42NS0xLjAxLTAuODctMS41MmMtMC41OC0xLjMxLTAuODUtMi43OS0xLjQ2LTQuMTJjLTAuMy0wLjYzLTAuNzktMS4yNy0xLjItMS44NCAgICAgICBjLTAuNDQtMC42My0wLjk1LTEuMDktMS4zLTEuODRjLTAuMTItMC4yNy0wLjI5LTAuNy0wLjEtMC45OGMwLjA1LTAuMTgsMC4xNC0wLjI2LDAuMzItMC4zMmMwLjMyLTAuMjUsMS4xOSwwLjA4LDEuNTIsMC4yMSAgICAgICBjMC44NywwLjM2LDEuNTksMC43MSwyLjMzLDEuMmMwLjM1LDAuMjMsMC43MSwwLjY4LDEuMTQsMC44MWMwLjE2LDAsMC4zMiwwLDAuNDgsMGMwLjc3LDAuMTcsMS42MiwwLjA1LDIuMzQsMC4yNyAgICAgICBjMS4yNiwwLjM4LDIuMzgsMC45OCwzLjQxLDEuNjNjMy4xMiwxLjk3LDUuNjgsNC43OCw3LjQzLDguMTNjMC4yOCwwLjU0LDAuNCwxLjA1LDAuNjUsMS42MmMwLjUsMS4xNiwxLjEzLDIuMzQsMS42MiwzLjQ3ICAgICAgIGMwLjUsMS4xMywwLjk4LDIuMjYsMS42OCwzLjJjMC4zNywwLjQ5LDEuOCwwLjc2LDIuNDQsMS4wM2MwLjQ2LDAuMTksMS4yLDAuMzksMS42MywwLjY1YzAuODIsMC40OSwxLjYxLDEuMDgsMi4zOCwxLjYzICAgICAgIEMzMS40Myw1MS4yNCwzMi42MSw1MS44MywzMi42Nyw1Mi4zMnoiLz4mI3hhOwkJCQk8L2c+JiN4YTsJCQk8L2c+JiN4YTsJCQk8cGF0aCBpZD0icGF0aDEwMjA5MyIgaW5rc2NhcGU6Y29ubmVjdG9yLWN1cnZhdHVyZT0iMCIgc3R5bGU9ImZpbGw6I0ZGRkZGRjsiIGQ9Ik0zMi42Nyw1Mi4zMmMtMS45MS0wLjA1LTMuMzYsMC4xMy00LjYxLDAuNjUgICAgIGMtMC4zNSwwLjE1LTAuOTIsMC4xNS0wLjk3LDAuNmMwLjE5LDAuMiwwLjIyLDAuNTEsMC4zOCwwLjc2YzAuMjksMC40OCwwLjc5LDEuMTIsMS4yNCwxLjQ2YzAuNDksMC4zNywxLDAuNzYsMS41MiwxLjA4ICAgICBjMC45MywwLjU3LDEuOTcsMC45LDIuODcsMS40N2MwLjUzLDAuMzMsMS4wNiwwLjc2LDEuNTcsMS4xNGMwLjI2LDAuMTgsMC40MywwLjQ3LDAuNzYsMC41OWMwLTAuMDIsMC0wLjAzLDAtMC4wNSAgICAgYy0wLjE3LTAuMjItMC4yMi0wLjUzLTAuMzgtMC43NmMtMC4yMy0wLjI0LTAuNDctMC40Ny0wLjctMC43MWMtMC42OS0wLjkxLTEuNTYtMS43MS0yLjQ5LTIuMzhjLTAuNzUtMC41My0yLjQtMS4yNS0yLjcxLTIuMTEgICAgIGMtMC4wMi0wLjAyLTAuMDQtMC4wNC0wLjA2LTAuMDZjMC41My0wLjA2LDEuMTQtMC4yNSwxLjYzLTAuMzhjMC44MS0wLjIyLDEuNTQtMC4xNiwyLjM4LTAuMzhjMC4zOC0wLjExLDAuNzYtMC4yMSwxLjE0LTAuMzIgICAgIGMwLTAuMDcsMC0wLjE1LDAtMC4yMmMtMC40Mi0wLjQ0LTAuNzMtMS4wMS0xLjE5LTEuNDFjLTEuMjItMS4wMy0yLjU0LTIuMDYtMy45LTIuOTNjLTAuNzYtMC40Ny0xLjctMC43OC0yLjUtMS4xOSAgICAgYy0wLjI3LTAuMTMtMC43NC0wLjItMC45Mi0wLjQzYy0wLjQyLTAuNTQtMC42NS0xLjIyLTAuOTctMS44NGMtMC42OC0xLjMxLTEuMzUtMi43NS0xLjk2LTQuMTJjLTAuNDEtMC45NC0wLjY4LTEuODctMS4xOS0yLjcxICAgICBjLTIuNDYtNC4wNS01LjExLTYuNDktOS4yMS04Ljg5Yy0wLjg4LTAuNTEtMS45My0wLjcyLTMuMDQtMC45OGMtMC41OS0wLjA0LTEuMTktMC4wNy0xLjc5LTAuMTFjLTAuMzYtMC4xNS0wLjc0LTAuNi0xLjA4LTAuODEgICAgIGMtMS4zNi0wLjg2LTQuODUtMi43My01Ljg1LTAuMjdDMCwyOC41NiwxLjU5LDMwLjA3LDIuMTUsMzAuODZjMC40LDAuNTUsMC45MSwxLjE3LDEuMiwxLjc5YzAuMTgsMC40LDAuMjIsMC44MSwwLjM4LDEuMjQgICAgIGMwLjM5LDEuMDYsMC43MywyLjIyLDEuMjQsMy4yYzAuMjYsMC41LDAuNTQsMS4wMiwwLjg3LDEuNDZjMC4yLDAuMjgsMC41NCwwLjQsMC42LDAuODJjLTAuMzQsMC40Ni0wLjM2LDEuMTktMC41NSwxLjc5ICAgICBjLTAuODQsMi42Ny0wLjUyLDUuOTksMC43MSw3Ljk2YzAuMzgsMC42MSwxLjI3LDEuOTEsMi40OSwxLjQxYzEuMDctMC40MywwLjgzLTEuNzksMS4xNC0yLjk4YzAuMDctMC4yNywwLjAzLTAuNDcsMC4xNi0wLjY1ICAgICBjMCwwLjAyLDAsMC4wNCwwLDAuMDZjMC4zMywwLjY1LDAuNjUsMS4zLDAuOTgsMS45NWMwLjcyLDEuMTYsMiwyLjM3LDMuMDksMy4xOWMwLjU2LDAuNDMsMSwxLjE3LDEuNzMsMS40MSAgICAgYzAtMC4wMSwwLTAuMDMsMC0wLjA1Yy0wLjAyLDAtMC4wMywwLTAuMDUsMGMtMC4xNC0wLjIyLTAuMzYtMC4zMS0wLjU0LTAuNDljLTAuNDMtMC40MS0wLjktMC45My0xLjI1LTEuNDEgICAgIGMtMC45OS0xLjM0LTEuODYtMi44MS0yLjY2LTQuMzNjLTAuMzgtMC43My0wLjcxLTEuNTQtMS4wMy0yLjI4Yy0wLjEyLTAuMjktMC4xMi0wLjcyLTAuMzgtMC44N2MtMC4zNSwwLjU1LTAuODYsMC45OS0xLjEzLDEuNjMgICAgIGMtMC40NCwxLjAzLTAuNDksMi4yOC0wLjY1LDMuNThjLTAuMSwwLjAzLTAuMDYsMC4wMS0wLjExLDAuMDVjLTAuNzYtMC4xOC0xLjAyLTAuOTYtMS4zLTEuNjNjLTAuNzEtMS42OC0wLjg1LTQuNC0wLjIyLTYuMzQgICAgIGMwLjE2LTAuNSwwLjg5LTIuMDgsMC41OS0yLjU1Yy0wLjE0LTAuNDYtMC42LTAuNzMtMC44Ni0xLjA4Yy0wLjMyLTAuNDQtMC42NS0xLjAxLTAuODctMS41MmMtMC41OC0xLjMxLTAuODUtMi43OS0xLjQ2LTQuMTIgICAgIGMtMC4zLTAuNjMtMC43OS0xLjI3LTEuMi0xLjg0Yy0wLjQ0LTAuNjMtMC45NS0xLjA5LTEuMy0xLjg0Yy0wLjEyLTAuMjctMC4yOS0wLjctMC4xLTAuOThjMC4wNS0wLjE4LDAuMTQtMC4yNiwwLjMyLTAuMzIgICAgIGMwLjMyLTAuMjUsMS4xOSwwLjA4LDEuNTIsMC4yMWMwLjg3LDAuMzYsMS41OSwwLjcxLDIuMzMsMS4yYzAuMzUsMC4yMywwLjcxLDAuNjgsMS4xNCwwLjgxYzAuMTYsMCwwLjMyLDAsMC40OCwwICAgICBjMC43NywwLjE3LDEuNjIsMC4wNSwyLjM0LDAuMjdjMS4yNiwwLjM4LDIuMzgsMC45OCwzLjQxLDEuNjNjMy4xMiwxLjk3LDUuNjgsNC43OCw3LjQzLDguMTNjMC4yOCwwLjU0LDAuNCwxLjA1LDAuNjUsMS42MiAgICAgYzAuNSwxLjE2LDEuMTMsMi4zNCwxLjYyLDMuNDdjMC41LDEuMTMsMC45OCwyLjI2LDEuNjgsMy4yYzAuMzcsMC40OSwxLjgsMC43NiwyLjQ0LDEuMDNjMC40NiwwLjE5LDEuMiwwLjM5LDEuNjMsMC42NSAgICAgYzAuODIsMC40OSwxLjYxLDEuMDgsMi4zOCwxLjYzQzMxLjQzLDUxLjI0LDMyLjYxLDUxLjgzLDMyLjY3LDUyLjMyeiIvPiYjeGE7CQk8L2c+JiN4YTsJCTxnIGlkPSJzaGFwZTM2NDAtOSIgdHJhbnNmb3JtPSJ0cmFuc2xhdGUoMTguMDU0MiwtMzMuMzU2NSkiPiYjeGE7CQkJPHRpdGxlIGlkPSJ0aXRsZTEwMjA5NiI+U2hlZXQuMzY0MDwvdGl0bGU+JiN4YTsJCQk8ZyBpZD0ic2hhZG93MzY0MC0xMCIgdHJhbnNmb3JtPSJ0cmFuc2xhdGUoMC4zNDU2LDEuOTcyOCkiPiYjeGE7CQkJCTxnIGlkPSJwYXRoMTAyMDk4IiBpbmtzY2FwZTpjb25uZWN0b3ItY3VydmF0dXJlPSIwIiBzdHlsZT0iZmlsdGVyOnVybCgjZmlsdGVyXzIpOyI+JiN4YTsJCQkJCTxwYXRoIHN0eWxlPSJvcGFjaXR5OjAuMjI7ZmlsbDojNUI5QkQ1OyIgZD0iTTAuOTgsNTcuOEMwLjU4LDU3Ljc5LDAuMyw1Ny44NCwwLDU3LjljMCwwLjAyLDAsMC4wNCwwLDAuMDYgICAgICAgYzAuMDIsMCwwLjA0LDAsMC4wNSwwYzAuMTksMC4zOSwwLjUzLDAuNjQsMC43NiwwLjk3YzAuMTgsMC4zOCwwLjM2LDAuNzYsMC41NSwxLjE0YzAuMDEtMC4wMiwwLjAzLTAuMDMsMC4wNS0wLjA1ICAgICAgIGMwLjMzLTAuMjQsMC40OS0wLjYyLDAuNDktMS4xOWMtMC4xNC0wLjE1LTAuMTYtMC4zMi0wLjI3LTAuNDlDMS40Nyw1OC4xMSwxLjE3LDU3Ljk4LDAuOTgsNTcuOHoiLz4mI3hhOwkJCQk8L2c+JiN4YTsJCQk8L2c+JiN4YTsJCQk8cGF0aCBpZD0icGF0aDEwMjEwMSIgaW5rc2NhcGU6Y29ubmVjdG9yLWN1cnZhdHVyZT0iMCIgc3R5bGU9ImZpbGw6I0ZGRkZGRjsiIGQ9Ik0wLjk4LDU3LjhDMC41OCw1Ny43OSwwLjMsNTcuODQsMCw1Ny45ICAgICBjMCwwLjAyLDAsMC4wNCwwLDAuMDZjMC4wMiwwLDAuMDQsMCwwLjA1LDBjMC4xOSwwLjM5LDAuNTMsMC42NCwwLjc2LDAuOTdjMC4xOCwwLjM4LDAuMzYsMC43NiwwLjU1LDEuMTQgICAgIGMwLjAxLTAuMDIsMC4wMy0wLjAzLDAuMDUtMC4wNWMwLjMzLTAuMjQsMC40OS0wLjYyLDAuNDktMS4xOWMtMC4xNC0wLjE1LTAuMTYtMC4zMi0wLjI3LTAuNDlDMS40Nyw1OC4xMSwxLjE3LDU3Ljk4LDAuOTgsNTcuOHogICAgICIvPiYjeGE7CQk8L2c+JiN4YTsJPC9nPiYjeGE7PC9nPiYjeGE7PC9zdmc+;" vertex="1" parent="1">
          <mxGeometry x="1657.84" y="1856" width="91.58" height="103.68" as="geometry" />
        </mxCell>
        <mxCell id="uE881-GqZYFhaDyidCsF-302" value="" style="whiteSpace=wrap;html=1;verticalAlign=top;rounded=1;shadow=0;strokeWidth=2;arcSize=3;dashed=1;" vertex="1" parent="1">
          <mxGeometry x="2160" y="1795" width="560" height="200" as="geometry" />
        </mxCell>
        <mxCell id="uE881-GqZYFhaDyidCsF-303" value="elastic" style="sketch=0;outlineConnect=0;fontColor=#232F3E;gradientColor=none;strokeColor=#ffffff;fillColor=#232F3E;dashed=0;verticalLabelPosition=middle;verticalAlign=bottom;align=center;html=1;whiteSpace=wrap;fontSize=10;fontStyle=1;spacing=3;shape=mxgraph.aws4.productIcon;prIcon=mxgraph.aws4.elasticsearch_service;" vertex="1" parent="1">
          <mxGeometry x="2220" y="1865" width="80" height="120" as="geometry" />
        </mxCell>
        <mxCell id="uE881-GqZYFhaDyidCsF-304" value="" style="whiteSpace=wrap;html=1;verticalAlign=top;rounded=1;shadow=0;strokeWidth=2;arcSize=3;dashed=1;" vertex="1" parent="1">
          <mxGeometry x="2877.84" y="1785" width="560" height="200" as="geometry" />
        </mxCell>
        <mxCell id="uE881-GqZYFhaDyidCsF-305" value="" style="shape=image;verticalLabelPosition=bottom;labelBackgroundColor=#ffffff;verticalAlign=top;aspect=fixed;imageAspect=0;image=data:image/svg+xml,PHN2ZyB4bWxuczpkYz0iaHR0cDovL3B1cmwub3JnL2RjL2VsZW1lbnRzLzEuMS8iIHhtbG5zOmNjPSJodHRwOi8vY3JlYXRpdmVjb21tb25zLm9yZy9ucyMiIHhtbG5zOnJkZj0iaHR0cDovL3d3dy53My5vcmcvMTk5OS8wMi8yMi1yZGYtc3ludGF4LW5zIyIgeG1sbnM6c3ZnPSJodHRwOi8vd3d3LnczLm9yZy8yMDAwL3N2ZyIgeG1sbnM9Imh0dHA6Ly93d3cudzMub3JnLzIwMDAvc3ZnIiB4bWxuczp4bGluaz0iaHR0cDovL3d3dy53My5vcmcvMTk5OS94bGluayIgeG1sbnM6c29kaXBvZGk9Imh0dHA6Ly9zb2RpcG9kaS5zb3VyY2Vmb3JnZS5uZXQvRFREL3NvZGlwb2RpLTAuZHRkIiB4bWxuczppbmtzY2FwZT0iaHR0cDovL3d3dy5pbmtzY2FwZS5vcmcvbmFtZXNwYWNlcy9pbmtzY2FwZSIgdmVyc2lvbj0iMS4xIiBpZD0iTGF5ZXJfMSIgeD0iMHB4IiB5PSIwcHgiIHZpZXdCb3g9IjAgMCAzNS45Mzk5OTUgMzUuOTUwMDAxIiB4bWw6c3BhY2U9InByZXNlcnZlIiBzb2RpcG9kaTpkb2NuYW1lPSJzYXBfc2VfcmFiYml0bXEuc3ZnIiB3aWR0aD0iMzUuOTM5OTk1IiBoZWlnaHQ9IjM1Ljk1MDAwMSIgaW5rc2NhcGU6dmVyc2lvbj0iMC45Mi4zICgyNDA1NTQ2LCAyMDE4LTAzLTExKSI+PG1ldGFkYXRhIGlkPSJtZXRhZGF0YTYwODc3Ij48cmRmOlJERj48Y2M6V29yayByZGY6YWJvdXQ9IiI+PGRjOmZvcm1hdD5pbWFnZS9zdmcreG1sPC9kYzpmb3JtYXQ+PGRjOnR5cGUgcmRmOnJlc291cmNlPSJodHRwOi8vcHVybC5vcmcvZGMvZGNtaXR5cGUvU3RpbGxJbWFnZSIvPjxkYzp0aXRsZS8+PC9jYzpXb3JrPjwvcmRmOlJERj48L21ldGFkYXRhPjxkZWZzIGlkPSJkZWZzNjA4NzUiLz48c29kaXBvZGk6bmFtZWR2aWV3IHBhZ2Vjb2xvcj0iI2ZmZmZmZiIgYm9yZGVyY29sb3I9IiM2NjY2NjYiIGJvcmRlcm9wYWNpdHk9IjEiIG9iamVjdHRvbGVyYW5jZT0iMTAiIGdyaWR0b2xlcmFuY2U9IjEwIiBndWlkZXRvbGVyYW5jZT0iMTAiIGlua3NjYXBlOnBhZ2VvcGFjaXR5PSIwIiBpbmtzY2FwZTpwYWdlc2hhZG93PSIyIiBpbmtzY2FwZTp3aW5kb3ctd2lkdGg9IjE5MjAiIGlua3NjYXBlOndpbmRvdy1oZWlnaHQ9IjEwMTciIGlkPSJuYW1lZHZpZXc2MDg3MyIgc2hvd2dyaWQ9ImZhbHNlIiBmaXQtbWFyZ2luLXRvcD0iMCIgZml0LW1hcmdpbi1sZWZ0PSIwIiBmaXQtbWFyZ2luLXJpZ2h0PSIwIiBmaXQtbWFyZ2luLWJvdHRvbT0iMCIgaW5rc2NhcGU6em9vbT0iMS4wMzAzMDMiIGlua3NjYXBlOmN4PSItMjUuMjI1MDA2IiBpbmtzY2FwZTpjeT0iLTE5Mi4wNCIgaW5rc2NhcGU6d2luZG93LXg9Ii04IiBpbmtzY2FwZTp3aW5kb3cteT0iLTgiIGlua3NjYXBlOndpbmRvdy1tYXhpbWl6ZWQ9IjEiIGlua3NjYXBlOmN1cnJlbnQtbGF5ZXI9IkxheWVyXzEiLz4mI3hhOyYjeGE7PGcgaWQ9Imc2MDg3MCIgdHJhbnNmb3JtPSJ0cmFuc2xhdGUoLTMyMi42MDAwMSwtMTkyLjc2KSI+JiN4YTsJPGRlZnMgaWQ9ImRlZnM2MDg1NSI+JiN4YTsJCTxyZWN0IGlkPSJTVkdJRF8zXyIgeD0iMzIyLjYwMDAxIiB5PSIxOTIuNzU5OTkiIHdpZHRoPSIzNi44MiIgaGVpZ2h0PSIzNi44MiIvPiYjeGE7CTwvZGVmcz4mI3hhOwk8Y2xpcFBhdGggaWQ9IlNWR0lEXzRfIj4mI3hhOwkJPHVzZSB4bGluazpocmVmPSIjU1ZHSURfM18iIHN0eWxlPSJvdmVyZmxvdzp2aXNpYmxlIiBpZD0idXNlNjA4NTciIHg9IjAiIHk9IjAiIHdpZHRoPSIxMDAlIiBoZWlnaHQ9IjEwMCUiLz4mI3hhOwk8L2NsaXBQYXRoPiYjeGE7CTxnIGNsaXAtcGF0aD0idXJsKCNTVkdJRF80XykiIGlkPSJnNjA4NjgiPiYjeGE7CQk8ZGVmcyBpZD0iZGVmczYwODYxIj4mI3hhOwkJCTxyZWN0IGlkPSJTVkdJRF81XyIgeD0iMzIyLjYwMDAxIiB5PSIxOTIuNzU5OTkiIHdpZHRoPSIzNi44MiIgaGVpZ2h0PSIzNi44MiIvPiYjeGE7CQk8L2RlZnM+JiN4YTsJCTxjbGlwUGF0aCBpZD0iU1ZHSURfNl8iPiYjeGE7CQkJPHVzZSB4bGluazpocmVmPSIjU1ZHSURfNV8iIHN0eWxlPSJvdmVyZmxvdzp2aXNpYmxlIiBpZD0idXNlNjA4NjMiIHg9IjAiIHk9IjAiIHdpZHRoPSIxMDAlIiBoZWlnaHQ9IjEwMCUiLz4mI3hhOwkJPC9jbGlwUGF0aD4mI3hhOwkJPHBhdGggc3R5bGU9ImZpbGw6I2ViNjAyMiIgZD0ibSAzNTEuMzUsMjE5LjM2IGMgMCwxLjIgLTAuOTYsMi4xNiAtMi4xNiwyLjE2IGggLTIuODggYyAtMS4yLDAgLTIuMTYsLTAuOTYgLTIuMTYsLTIuMTYgdiAtMi44OCBjIDAsLTEuMiAwLjk2LC0yLjE2IDIuMTYsLTIuMTYgaCAyLjg4IGMgMS4yLDAgMi4xNiwwLjk2IDIuMTYsMi4xNiB6IG0gNS43NSwtMTIuMjIgaCAtMTEuNSBjIC0wLjc4LDAgLTEuNDQsLTAuNjYgLTEuNDQsLTEuNDQgdiAtMTEuNSBjIDAsLTAuNzggLTAuNjYsLTEuNDQgLTEuNDQsLTEuNDQgaCAtNC4zMSBjIC0wLjc4LDAgLTEuNDQsMC42NiAtMS40NCwxLjQ0IHYgMTEuNSBjIDAsMC43OCAtMC42NiwxLjQ0IC0xLjQ0LDEuNDQgaCAtNC4zMSBjIC0wLjc4LDAgLTEuNDQsLTAuNjYgLTEuNDQsLTEuNDQgdiAtMTEuNSBjIDAsLTAuNzggLTAuNjYsLTEuNDQgLTEuNDQsLTEuNDQgaCAtNC4zMSBjIC0wLjc4LDAgLTEuNDQsMC42NiAtMS40NCwxLjQ0IHYgMzMuMDcgYyAwLDAuNzggMC42NiwxLjQ0IDEuNDQsMS40NCBoIDMzLjA3IGMgMC43OCwwIDEuNDQsLTAuNjYgMS40NCwtMS40NCB2IC0xOC42OSBjIDAsLTAuNzkgLTAuNjYsLTEuNDQgLTEuNDQsLTEuNDQiIGNsaXAtcGF0aD0idXJsKCNTVkdJRF82XykiIGlkPSJwYXRoNjA4NjYiIGlua3NjYXBlOmNvbm5lY3Rvci1jdXJ2YXR1cmU9IjAiLz4mI3hhOwk8L2c+JiN4YTs8L2c+JiN4YTs8L3N2Zz4=;" vertex="1" parent="1">
          <mxGeometry x="3050" y="1877.34" width="61" height="61" as="geometry" />
        </mxCell>
        <mxCell id="uE881-GqZYFhaDyidCsF-306" value="" style="shape=image;verticalLabelPosition=bottom;labelBackgroundColor=#ffffff;verticalAlign=top;aspect=fixed;imageAspect=0;image=data:image/svg+xml,PHN2ZyB4bWxuczpjYz0iaHR0cDovL2NyZWF0aXZlY29tbW9ucy5vcmcvbnMjIiB4bWxuczpkYz0iaHR0cDovL3B1cmwub3JnL2RjL2VsZW1lbnRzLzEuMS8iIHhtbG5zOmlua3NjYXBlPSJodHRwOi8vd3d3Lmlua3NjYXBlLm9yZy9uYW1lc3BhY2VzL2lua3NjYXBlIiB4bWxuczpyZGY9Imh0dHA6Ly93d3cudzMub3JnLzE5OTkvMDIvMjItcmRmLXN5bnRheC1ucyMiIHhtbG5zOnNvZGlwb2RpPSJodHRwOi8vc29kaXBvZGkuc291cmNlZm9yZ2UubmV0L0RURC9zb2RpcG9kaS0wLmR0ZCIgeG1sbnM6c3ZnPSJodHRwOi8vd3d3LnczLm9yZy8yMDAwL3N2ZyIgeG1sbnM9Imh0dHA6Ly93d3cudzMub3JnLzIwMDAvc3ZnIiB4bWxuczp4bGluaz0iaHR0cDovL3d3dy53My5vcmcvMTk5OS94bGluayIgdmVyc2lvbj0iMS4xIiBpZD0ic3ZnMTA5Mzk3IiBpbmtzY2FwZTp2ZXJzaW9uPSIwLjkyLjMgKDI0MDU1NDYsIDIwMTgtMDMtMTEpIiBzb2RpcG9kaTpkb2NuYW1lPSJhenVyZV9maWxlc19zdG9yYWdlLnN2ZyIgeD0iMHB4IiB5PSIwcHgiIHZpZXdCb3g9IjAgMCA3My43IDYzLjc2IiBzdHlsZT0iZW5hYmxlLWJhY2tncm91bmQ6bmV3IDAgMCA3My43IDYzLjc2OyIgeG1sOnNwYWNlPSJwcmVzZXJ2ZSI+JiN4YTs8c29kaXBvZGk6bmFtZWR2aWV3IGJvcmRlcmNvbG9yPSIjNjY2NjY2IiBib3JkZXJvcGFjaXR5PSIxIiBmaXQtbWFyZ2luLWJvdHRvbT0iMCIgZml0LW1hcmdpbi1sZWZ0PSIwIiBmaXQtbWFyZ2luLXJpZ2h0PSIwIiBmaXQtbWFyZ2luLXRvcD0iMCIgZ3JpZHRvbGVyYW5jZT0iMTAiIGd1aWRldG9sZXJhbmNlPSIxMCIgaWQ9Im5hbWVkdmlldzEwOTM5OSIgaW5rc2NhcGU6Y3VycmVudC1sYXllcj0ic3ZnMTA5Mzk3IiBpbmtzY2FwZTpjeD0iNDkuMTMzODYyIiBpbmtzY2FwZTpjeT0iNDIuNTA4MDY4IiBpbmtzY2FwZTpwYWdlb3BhY2l0eT0iMCIgaW5rc2NhcGU6cGFnZXNoYWRvdz0iMiIgaW5rc2NhcGU6d2luZG93LWhlaWdodD0iMTAxNyIgaW5rc2NhcGU6d2luZG93LW1heGltaXplZD0iMSIgaW5rc2NhcGU6d2luZG93LXdpZHRoPSIxOTIwIiBpbmtzY2FwZTp3aW5kb3cteD0iLTgiIGlua3NjYXBlOndpbmRvdy15PSItOCIgaW5rc2NhcGU6em9vbT0iOS45NTYwMDM1IiBvYmplY3R0b2xlcmFuY2U9IjEwIiBwYWdlY29sb3I9IiNmZmZmZmYiIHNob3dncmlkPSJmYWxzZSI+JiN4YTsJPC9zb2RpcG9kaTpuYW1lZHZpZXc+JiN4YTs8ZyBpZD0iZzEwOTM5NSIgdHJhbnNmb3JtPSJ0cmFuc2xhdGUoLTAuNzcyODQyNTYsLTAuNzc3MjczKSI+JiN4YTsJPHRpdGxlIGlkPSJ0aXRsZTEwOTM3NyI+UGFnZS0xPC90aXRsZT4mI3hhOwk8ZyBpZD0iZ3JvdXAyNzAtMSIgdHJhbnNmb3JtPSJ0cmFuc2xhdGUoMC43NzI3MjcsLTAuNzcyNzI3KSI+JiN4YTsJCTx0aXRsZSBpZD0idGl0bGUxMDkzNzkiPkF6dXJlIEZpbGVzIFN0b3JhZ2UgKERlcHJlY2F0ZWQpPC90aXRsZT4mI3hhOwkJPGcgaWQ9Imdyb3VwMjcxLTIiPiYjeGE7CQkJPHRpdGxlIGlkPSJ0aXRsZTEwOTM4MSI+U2hlZXQuMjcxPC90aXRsZT4mI3hhOwkJCTxnIGlkPSJzaGFwZTI3Mi0zIiB0cmFuc2Zvcm09InRyYW5zbGF0ZSgyMS4yMTkxLC0xNS41NTgzKSI+JiN4YTsJCQkJPHRpdGxlIGlkPSJ0aXRsZTEwOTM4MyI+U2hlZXQuMjcyPC90aXRsZT4mI3hhOwkJCQk8cGF0aCBpZD0icGF0aDEwOTM4NSIgaW5rc2NhcGU6Y29ubmVjdG9yLWN1cnZhdHVyZT0iMCIgc3R5bGU9ImZpbGw6IzAwNzhENzsiIGQ9Ik0yNC44NywzMi42NkgxLjk0QzAuNzcsMzIuNjYsMCwzMy42NSwwLDM0LjYgICAgICB2MjguNTZjMCwxLjE3LDAuOTksMi4xNSwxLjk0LDIuMTVoMjcuMDJjMS4xNywwLDEuOTQtMC45OCwxLjk0LTIuMTVWMzkuMDVoLTYuMjF2LTYuNDJMMjQuODcsMzIuNjZ6IE0yNC4xLDU3LjM1SDYuNzl2LTMuMjkgICAgICBIMjQuMVY1Ny4zNXogTTI0LjEsNTEuMzJINi43OXYtMy4yOEgyNC4xVjUxLjMyeiBNMjQuMSw0NS4xMkg2Ljc5di0zLjI5SDI0LjFWNDUuMTJ6Ii8+JiN4YTsJCQk8L2c+JiN4YTsJCQk8ZyBpZD0ic2hhcGUyNzMtNSI+JiN4YTsJCQkJPHRpdGxlIGlkPSJ0aXRsZTEwOTM4OCI+U2hlZXQuMjczPC90aXRsZT4mI3hhOwkJCQk8cGF0aCBpZD0icGF0aDEwOTM5MCIgaW5rc2NhcGU6Y29ubmVjdG9yLWN1cnZhdHVyZT0iMCIgc3R5bGU9ImZpbGw6IzAwNzhENzsiIGQ9Ik01NS4yMiwxLjU1SDE4LjQ4TDAsMzMuNDNsMTguNDgsMzEuODhoMzYuNzQgICAgICBMNzMuNywzMy40M0w1NS4yMiwxLjU1eiBNNTAuMzYsNTIuODZIMjMuMzRjLTIuOTIsMC01LjI2LTIuMzQtNS4yNi01LjI2VjE5LjA0YzAtMi45MiwyLjM0LTUuMjYsNS4yNi01LjI2aDI0LjVsNy43OCw3Ljc4VjQ3LjYgICAgICBDNTUuNjIsNTAuNTIsNTMuMjksNTIuODYsNTAuMzYsNTIuODZ6Ii8+JiN4YTsJCQk8L2c+JiN4YTsJCTwvZz4mI3hhOwk8L2c+JiN4YTs8L2c+JiN4YTs8L3N2Zz4=;" vertex="1" parent="1">
          <mxGeometry x="2393" y="1878" width="74" height="64" as="geometry" />
        </mxCell>
        <mxCell id="uE881-GqZYFhaDyidCsF-307" value="" style="shape=image;html=1;verticalAlign=top;verticalLabelPosition=bottom;labelBackgroundColor=#ffffff;imageAspect=0;aspect=fixed;image=https://cdn1.iconfinder.com/data/icons/modern-set-of-digital-symbols/48/volume_gauge_visualization-128.png" vertex="1" parent="1">
          <mxGeometry x="2530" y="1851" width="128" height="128" as="geometry" />
        </mxCell>
        <mxCell id="uE881-GqZYFhaDyidCsF-308" style="edgeStyle=orthogonalEdgeStyle;rounded=0;orthogonalLoop=1;jettySize=auto;html=1;exitX=0.5;exitY=1;exitDx=0;exitDy=0;entryX=0.75;entryY=1;entryDx=0;entryDy=0;" edge="1" parent="1" source="uE881-GqZYFhaDyidCsF-306" target="uE881-GqZYFhaDyidCsF-306">
          <mxGeometry relative="1" as="geometry" />
        </mxCell>
        <mxCell id="uE881-GqZYFhaDyidCsF-309" value="数据缓存层" style="text;strokeColor=none;fillColor=none;html=1;fontSize=24;fontStyle=1;verticalAlign=middle;align=center;" vertex="1" parent="1">
          <mxGeometry x="1343.8399999999997" y="1720" width="465" height="60" as="geometry" />
        </mxCell>
        <mxCell id="uE881-GqZYFhaDyidCsF-310" value="日志收集系统" style="text;strokeColor=none;fillColor=none;html=1;fontSize=24;fontStyle=1;verticalAlign=middle;align=center;" vertex="1" parent="1">
          <mxGeometry x="2179.71" y="1710" width="465" height="60" as="geometry" />
        </mxCell>
        <mxCell id="uE881-GqZYFhaDyidCsF-311" value="中间件" style="text;strokeColor=none;fillColor=none;html=1;fontSize=24;fontStyle=1;verticalAlign=middle;align=center;" vertex="1" parent="1">
          <mxGeometry x="2877.84" y="1730" width="465" height="60" as="geometry" />
        </mxCell>
        <mxCell id="uE881-GqZYFhaDyidCsF-312" style="edgeStyle=orthogonalEdgeStyle;rounded=0;orthogonalLoop=1;jettySize=auto;html=1;exitX=0.5;exitY=1;exitDx=0;exitDy=0;exitPerimeter=0;entryX=0.543;entryY=0;entryDx=0;entryDy=0;entryPerimeter=0;" edge="1" parent="1" source="uE881-GqZYFhaDyidCsF-297" target="uE881-GqZYFhaDyidCsF-310">
          <mxGeometry relative="1" as="geometry" />
        </mxCell>
        <mxCell id="uE881-GqZYFhaDyidCsF-313" value="" style="sketch=0;outlineConnect=0;fontColor=#232F3E;gradientColor=none;fillColor=#7AA116;strokeColor=none;dashed=0;verticalLabelPosition=bottom;verticalAlign=top;align=center;html=1;fontSize=12;fontStyle=0;aspect=fixed;pointerEvents=1;shape=mxgraph.aws4.s3_file_gateway;" vertex="1" parent="1">
          <mxGeometry x="3220" y="1862" width="78" height="78" as="geometry" />
        </mxCell>
      </root>
    </mxGraphModel>
  </diagram>
</mxfile>
